<svg id="Layer_1" data-name="Layer 1" xmlns="http://www.w3.org/2000/svg" xmlns:xlink="http://www.w3.org/1999/xlink" viewBox="0 0 394.79 306.01"><defs><style>.cls-1,.cls-15,.cls-2{fill:#68e1fd;}.cls-1{isolation:isolate;opacity:0.24;}.cls-3{fill:url(#linear-gradient);}.cls-14,.cls-4{fill:#fff;}.cls-5{fill:url(#linear-gradient-2);}.cls-6{fill:url(#linear-gradient-3);}.cls-7{fill:url(#linear-gradient-4);}.cls-8{fill:none;}.cls-9{fill:url(#linear-gradient-5);}.cls-10{fill:url(#linear-gradient-6);}.cls-11{fill:url(#linear-gradient-7);}.cls-12{fill:url(#linear-gradient-8);}.cls-13{fill:url(#linear-gradient-9);}.cls-14,.cls-15{opacity:0.69;}</style><linearGradient id="linear-gradient" x1="140.98" y1="63.21" x2="141.47" y2="8.97" gradientTransform="matrix(0.98, 0, 0, -0.98, -80.07, 210.05)" gradientUnits="userSpaceOnUse"><stop offset="0" stop-opacity="0"/><stop offset="0.99"/></linearGradient><linearGradient id="linear-gradient-2" x1="224.35" y1="148" x2="116.36" y2="36.1" gradientTransform="matrix(0.98, 0, 0, -0.98, -4.56, 289.15)" xlink:href="#linear-gradient"/><linearGradient id="linear-gradient-3" x1="302.58" y1="142.81" x2="344.93" y2="-131.47" gradientTransform="matrix(0.98, 0.01, 0.01, -0.98, 4.58, 297.07)" xlink:href="#linear-gradient"/><linearGradient id="linear-gradient-4" x1="366.09" y1="47.38" x2="367.06" y2="-33.97" gradientTransform="matrix(0, 0.98, 0.98, 0, 343.23, -75.17)" xlink:href="#linear-gradient"/><linearGradient id="linear-gradient-5" x1="355.94" y1="180.53" x2="342.75" y2="219.09" gradientTransform="matrix(0.98, 0, 0, -0.98, -4.56, 289.15)" xlink:href="#linear-gradient"/><linearGradient id="linear-gradient-6" x1="452.5" y1="251.24" x2="266.58" y2="244.4" gradientTransform="matrix(0.98, 0, 0, -0.98, -2.2, 292.37)" xlink:href="#linear-gradient"/><linearGradient id="linear-gradient-7" x1="332.91" y1="298.95" x2="351.48" y2="144.05" gradientTransform="matrix(0.98, 0, 0, -0.98, -2.2, 292.37)" gradientUnits="userSpaceOnUse"><stop offset="0.02" stop-color="#fff" stop-opacity="0"/><stop offset="0.32" stop-color="#fff" stop-opacity="0.39"/><stop offset="0.68" stop-color="#fff" stop-opacity="0.68"/><stop offset="1" stop-color="#fff"/></linearGradient><linearGradient id="linear-gradient-8" x1="339.08" y1="188.7" x2="385.13" y2="171.47" gradientTransform="matrix(0.98, 0, 0, -0.98, -2.2, 292.37)" xlink:href="#linear-gradient"/><linearGradient id="linear-gradient-9" x1="381.35" y1="183.1" x2="359" y2="196.9" gradientTransform="matrix(0.98, 0, 0, -0.98, -4.56, 289.15)" xlink:href="#linear-gradient"/></defs><path class="cls-1" d="M240.05,23.65c-9.44-5.38-20.67-8.4-31.25-6-7.07,1.62-13.43,5.44-19.62,9.23L133.53,61c-12.77,7.81-26,16.14-33.66,29-4.28,7.22-6.5,15.44-10,23-7.37,16-20.51,29.37-24.49,46.49-5.5,23.51,8,47.85,26.36,63.6s41.07,25.12,62,37.1c13.12,7.51,25.66,16.11,39.33,22.58a130.64,130.64,0,0,0,40,11.78c9.87,1.18,20.14,1.08,29.39-2.54,22.74-8.92,32.58-35.5,51.12-51.4,9.61-8.25,21.4-13.46,32.13-20.2s20.95-15.81,24.36-28c4.36-15.62-3.68-32.29-14.71-44.2s-25-20.75-36.38-32.33c-13.94-14.15-19.72-32.22-30.95-48C276.33,51.46,257.47,33.59,240.05,23.65Z" transform="translate(-5.32 0)"/><path class="cls-1" d="M310.12,212c-10.34,2.2-18.14,10.47-25.23,18.32L274,242.41c-2.93,3.21-5.86,6.61-6.84,10.83-1.78,8.34,5.07,15.81,11.34,21.59l24.79,22.8c2.93,2.71,6,5.46,9.66,6.92,3.9,1.54,8.23,1.5,12.43,1.43,9-.16,18.76-.56,25.92-6,5.47-4.19,8.63-10.74,13.75-15.36,15.3-13.75,23.06-25.95,3.17-39.52C351,233.31,334,206.88,310.12,212Z" transform="translate(-5.32 0)"/><path class="cls-1" d="M95.78,86.35c3.9,2.69,7.88,5.3,11,8.79a30.27,30.27,0,0,1,7.2,22.51,39.37,39.37,0,0,1-9.51,21.95c-3.16,3.72-6.91,6.94-9.77,10.86-2,2.66-3.52,5.61-5.51,8.26a33.56,33.56,0,0,1-22.76,12.84A38.08,38.08,0,0,1,41,165.18c-11.1-7.48-17.73-19.81-26.12-30.27C12,131.38,8.9,128,7.14,123.81c-2.57-6.11-1.95-13-1-19.6C7,99.3,8,94.1,11.32,90.35c4.08-4.59,10.62-5.95,15.84-9.18C37.69,74.7,45.5,59,59.81,60.79c6.37.82,11.56,5.66,16.19,9.69A239.3,239.3,0,0,0,95.78,86.35Z" transform="translate(-5.32 0)"/><path class="cls-1" d="M286.38,22.65c-7.75,7-15.32,15.06-17.69,25.23-2.75,11.71,1.95,23.9,8.48,34s15,18.82,21,29.18c1.91,3.23,3.67,6.73,6.69,9,3.47,2.54,8,2.93,12.29,3.3,17.15,1.34,36.37,2,49.32-9.29,10.74-9.41,14.08-24.61,22.14-36.39,2.88-4.2,6.46-8.14,7.72-13.09,2.05-8-2.63-16.2-7.64-22.84C377.8,27.14,359.8,6.19,341.68,1.2,321.73-4.29,300.28,10.11,286.38,22.65Z" transform="translate(-5.32 0)"/><polygon class="cls-2" points="305.03 73.04 205.73 135.53 203.03 131.22 302.34 68.73 305.03 73.04"/><rect class="cls-2" x="120.29" y="85.79" width="5.09" height="89.75" transform="translate(-51.79 189.82) rotate(-66.03)"/><rect class="cls-2" x="28.71" y="59.15" width="57.19" height="113.87" rx="10.07" transform="translate(-15.93 5.87) rotate(-5.37)"/><rect class="cls-3" x="28.71" y="59.15" width="57.19" height="113.87" rx="10.07" transform="translate(-15.93 5.87) rotate(-5.37)"/><rect class="cls-2" x="28.59" y="59.03" width="57.19" height="111.45" rx="9.96" transform="translate(-15.81 5.85) rotate(-5.37)"/><rect class="cls-4" x="31.31" y="61.6" width="51.44" height="100.06" rx="8.95" transform="translate(-15.52 5.83) rotate(-5.37)"/><g id="TWXE3W"><path class="cls-2" d="M206,90.68a63.75,63.75,0,1,0,1.21,0Zm9.55,29.66a.82.82,0,0,1,.1-.53c.18-.27.39-.62.66-.69s.54.21.91.4c-.68.69-.39,1.07.2,1.37a.9.9,0,0,1,.36.31,6.24,6.24,0,0,0,.63,1.33,5.14,5.14,0,0,0,1.34.79,12.69,12.69,0,0,1-1.25,1,3.22,3.22,0,0,1-2.53.6.81.81,0,0,0,0-.22l.82-.5c-.3-.37-.72-.65-.75-1s.36-.67.59-1.07c-.37-.59-.92-.86-1.3-.61-1.14.76-1.22,1-.7,1.8-.74.29-1.46.56-2.22.83-.15-.78.75-1.48,0-2.17a1.67,1.67,0,0,1,1.5-.83h.88C215.25,121.06,215.61,120.92,215.55,120.34Zm-18.46-16.43c1.51.23,3,.33,4.52.44a1.62,1.62,0,0,0,1.53-.48c.17-.21.57-.25.88-.3,1.17-.18,2.36-.4,3.54-.53a7.34,7.34,0,0,1,1.87.09c1.44.23,2.92.51,4.32.76a1.27,1.27,0,0,1,.63.3,17.94,17.94,0,0,0-1.8.13,3.48,3.48,0,0,0-1.1.27c-.54.27-1,.56-1.07,1.35a1.71,1.71,0,0,1-1.34,1.66,22.05,22.05,0,0,0-2.3,1c-.39.19-.39.41,0,.64s1.08.58,1.68,1c-.92.35-.92.35-2.83-.52l.81,1.35c-1.22.32-2.49.69-3.76,1a6.63,6.63,0,0,0-3.2,1.5,5.72,5.72,0,0,1-3.16,1.08c-.59.11-1.06.21-1.06,1a1.51,1.51,0,0,1-.51.85,6.45,6.45,0,0,1-1,.76,2,2,0,0,1-3.18-1.65,4.87,4.87,0,0,1-.07-1.21A6.32,6.32,0,0,1,191,113a2.39,2.39,0,0,1,.46-.49c1.66-1.8,1.29-3.69-.85-4.89a7.63,7.63,0,0,0-2.93-1,3.36,3.36,0,0,1-1-.49c1.43-.23,2.81-.42,4.16-.67a10.05,10.05,0,0,0,1.69-.62A9.27,9.27,0,0,1,197.09,103.91Zm14.1,9.77a1,1,0,0,1-.43.84,9.92,9.92,0,0,1-1.73.85,1.25,1.25,0,0,1-1.57-.35c-.18-.23-.57-.3-.87-.43a.27.27,0,0,0-.07-.22c.3-.12.57-.27.85-.36.92-.25,1.82-.49,2.72-.71C210.52,113.2,211,113.2,211.19,113.68Zm-32.06-7.75c.42-.13.86-.22,1.3-.34s1-.22,1.23-.87a1,1,0,0,1,.65-.55,4.52,4.52,0,0,0,.64-.12c.67-.14,1.36-.23,2-.34a9,9,0,0,0,1.63-.24,7.33,7.33,0,0,1,3.11-.47c.34,0,.66-.07,1-.08s.62,0,1,0a.89.89,0,0,0,0,.23,8.3,8.3,0,0,1-3.9,1.73,14.48,14.48,0,0,0-5.55,2.17c-.52.34-1.06.61-1.47-.19h0c-.07-.15-.38-.24-.6-.27a9.92,9.92,0,0,1-1.54-.27A1.92,1.92,0,0,1,179.13,105.93Zm-3.41,1.85c-.05,0-.08-.06-.17-.11.49-.83,1-1.08,1.89-.69a3.4,3.4,0,0,0,2.65.2,1.85,1.85,0,0,1,.14.14c-.14.19-.23.46-.39.53-.41.16-.87.19-1.29.35a.69.69,0,0,0-.41.44.65.65,0,0,0,.36.41l.56.15c1.49.45,3,.83,4.49,1.28a.62.62,0,0,1,.29.4,3,3,0,0,1-.11.66c-.27,1.2.05,1.64,1.29,1.66a.87.87,0,0,1-.69.9c-.81.2-1.61.46-2.39.71-.37.12-.76.24-.65.78a.42.42,0,0,1-.16.33,2,2,0,0,1-2.33-.07,1.19,1.19,0,0,1,.12-1.68,1.22,1.22,0,0,1,.57-.28c.47-.11,1-.14,1.45-.28a.88.88,0,0,0,.54-.38c.05-.12-.15-.38-.3-.54a6.42,6.42,0,0,0-3.36-1.64c-.38-.06-.77-.11-1.15-.14-.91,0-1.83-.15-2.75-.25-.39-.06-.88,0-.91-.59a.83.83,0,0,1,.67-1h.19a12.34,12.34,0,0,0,1.82-.19.82.82,0,0,0,.69-.42C176.47,108.09,176.2,107.78,175.72,107.78Zm8,17.79c.23.27.66.69.59.92a1,1,0,0,1-1.07.67,20.52,20.52,0,0,0-2.47-.18,6.13,6.13,0,0,1,2.88-2.24c-.21.19-.35.32-.58.51A2.31,2.31,0,0,1,183.69,125.57ZM186,183a9.08,9.08,0,0,0-1.82,1.51,4.31,4.31,0,0,0-.6,1.66,24.66,24.66,0,0,1-.88,3.16c-.26.6-1,1-1.43,1.52a2.3,2.3,0,0,1-3,.6c-.26.74.23,1.2.52,1.7.44.77.44.77-.3,1.3s-1.29,1.06-1.95,1.61a1.74,1.74,0,0,0-.5,1.71,7.25,7.25,0,0,1-.21,1.61,2.46,2.46,0,0,0-.12.85c.06.56.23,1.11.3,1.66.12,1,.19,1.89.28,2.81,0,.37.12.58.55.62a.67.67,0,0,1,.47.39c.25.52.48,1.06.7,1.59A1.38,1.38,0,0,1,176,207h0a3.09,3.09,0,0,0-1.57-1.41,5,5,0,0,1-2.5-2.44c-.59-1.17-1.25-2.19-1.07-3.64a1.88,1.88,0,0,0-1.18-2.21c-.17-.05-.29-.4-.32-.62-.11-.92-.16-1.85-.24-2.77-.19-1.95-.42-3.9-.54-5.85-.09-1.46,0-2.93,0-4.39v-2a4.22,4.22,0,0,0-3-3.71,1.88,1.88,0,0,1-1.51-2,2.08,2.08,0,0,0-1.15-1.95,4.39,4.39,0,0,1-2.06-2.48,2.54,2.54,0,0,0-.58-.83,2.06,2.06,0,0,1-.6-2,5.87,5.87,0,0,0-.09-1.45,3.55,3.55,0,0,1-.09-1,6.36,6.36,0,0,1,1-2.63,12.5,12.5,0,0,0,1.42-2.71,2.48,2.48,0,0,0-.85-2.93,1.16,1.16,0,0,0-1,0,1.7,1.7,0,0,1-2-.12,8.35,8.35,0,0,1-2.86-3.07,1.08,1.08,0,0,0-.5-.39,3.09,3.09,0,0,0-.9-.2,3.24,3.24,0,0,1-2.21-1.09,3.19,3.19,0,0,0-2.63-1,.94.94,0,0,1-.41,0,11.16,11.16,0,0,1-5.13-2.93,2.43,2.43,0,0,1-.44-1.95,62.77,62.77,0,0,1,10.76-27.74c1.29-1.87,2.78-3.62,4.19-5.41.2-.28.42-.4.73-.19a1.79,1.79,0,0,0,1.41.21c1.15-.14,2.31-.09,3.43-.33a22.84,22.84,0,0,0,4-1.24,3.61,3.61,0,0,0,1.76-2.6c.08-.3.19-.6.29-.9.34-1.11.34-1.11,1.47-.85l2.34.53c-.66.23-1.34.45-2,.73-.39.13-.44.4-.17.72.48.57.89,1.14,1.37,1.68a.74.74,0,0,0,.6.19c1-.58,1.95-.33,3-.41a7.07,7.07,0,0,1-.92,1.25,2.94,2.94,0,0,1-1.23.53c-1.17.24-2.36.39-3.53.58a1.6,1.6,0,0,1-1.66,1.38,8.62,8.62,0,0,0-4.12,1.9,2,2,0,0,0-.87,2.44c.13.38.25.85.85.55a.61.61,0,0,1,.41.11c.58.3,1.12.61,1.68.9s1,.6,1.56.37c.13,0,.32.09.32.07-.15,1-.3,1.78-.47,2.72a1.89,1.89,0,0,0,1.64-.85c1.1-1.58,2.26-3.11,3.37-4.65a6.72,6.72,0,0,0,.5-.69h0a3,3,0,0,1,3.42-1.54c.77.13,1.29.3,1.22,1.21,0,.14.36.37.56.4.92.11,1.38,0,2.93-.69a2.23,2.23,0,0,1,.13.44,3.11,3.11,0,0,1,0,.61,3.22,3.22,0,0,0,1.95,3.81l.3.16a6.48,6.48,0,0,1-4.1,1.78,6,6,0,0,0-3,.8,18.79,18.79,0,0,1-2.4.91,3.8,3.8,0,0,0-.76.63l.11.2,3-.27c-.12.74,0,1.18.78,1.25.29,0,.54.42.91.73-1.3.26-1.95,1.69-3.62,1.34.51-.46.9-.83,1.3-1.2-.6-.68-.76-.75-1.57-.24s-1.52,1.12-2.29,1.68c-.2.15-.39.39-.61.42-1.34.25-2,1.35-2.86,2.22a1.7,1.7,0,0,1-.19.19,2,2,0,0,1-1.44.79,1.13,1.13,0,0,0-.73.27,1.37,1.37,0,0,0-.43.8,2.75,2.75,0,0,1-1.57,2.75,19.16,19.16,0,0,0-2.66,1.72,2.57,2.57,0,0,0-.51,2.8,2.4,2.4,0,0,1,0,2.09c-.07.16-.46.3-.71.3a.52.52,0,0,1-.46-.42c-.2-.83-.35-1.7-.56-2.55a3.53,3.53,0,0,0-.44-.81l-.16.07v1l-.17.11c-.22-.23-.42-.49-.66-.71a5.72,5.72,0,0,0-1-.78.87.87,0,0,0-1.12.37c-.4.55-.88,1-1.3,1.53a15.79,15.79,0,0,0-1.1-1.21.76.76,0,0,0-.62-.14,3.27,3.27,0,0,0-2.06,1.18,14.15,14.15,0,0,1-1.82,1.81,1.47,1.47,0,0,0-.44,2,1.71,1.71,0,0,1,.07.87,3.19,3.19,0,0,0,2.29,3.65,1.82,1.82,0,0,0,2.19-.86c.16-.36.28-.74.45-1.12a.82.82,0,0,1,1-.55l.1,0a1.25,1.25,0,0,1,.33,1,13.49,13.49,0,0,1-.58,1.87c-.21.69-.06,1,.67,1.17.52.1,1.06.17,1.61.23a1,1,0,0,1,1,1,1.34,1.34,0,0,1,0,.2,11.74,11.74,0,0,0,.06,2.37,2.68,2.68,0,0,0,.73,1.22.85.85,0,0,0,.83.07,1.77,1.77,0,0,1,1.61-.16,4.71,4.71,0,0,0,.64.19c1,.24,1.22.06,1.89-.64a4.73,4.73,0,0,1,1.45-1,.5.5,0,0,1,.48.11.47.47,0,0,1,0,.46c-.54.48-.25.71.22.92l1.14.47c-.74-1.18.23-1.59.67-2.31.17.11.34.24.5.36a3,3,0,0,0,2.49,1h.14A4.94,4.94,0,0,1,174.2,158a10.19,10.19,0,0,0,4.41,2.22,2.34,2.34,0,0,1,1.64,1.05c.28.49.67,1,1,1.43a1,1,0,0,1,.09,1.38.94.94,0,0,1-.57.32l-.76.38c.2.39.43.5.81.29a2.72,2.72,0,0,1,.87-.34,1,1,0,0,1,.64.32s-.11.27-.16.42a1,1,0,0,0-.07.39.82.82,0,0,0,.48.12.51.51,0,0,0,.35-.19,1.42,1.42,0,0,1,2-.13.8.8,0,0,1,.13.13c.09.09.26.14.26.21.09,1.11.87.66,1.33.46a1.85,1.85,0,0,1,1.46.09c1.17.51,2.39.92,3.61,1.34a.89.89,0,0,1,.65.82A6.47,6.47,0,0,1,190.7,174a.9.9,0,0,1-.38.29c-.54.23-.58.67-.59,1.17a35.84,35.84,0,0,1-.19,3.73,8.37,8.37,0,0,1-.78,2.2c-.27.55-.54,1.15-1.44,1a1.24,1.24,0,0,0-.79.27,4,4,0,0,0-.54.32Zm67.49-5c-.5,1.23-.8,2.57-1.22,3.85a5.45,5.45,0,0,1-.54,1.08c-.63,1.18-.63,1.18-2,1a2,2,0,0,1-1.25-2.47v0a6.93,6.93,0,0,0,.83-1.38,3.69,3.69,0,0,0,0-1.62,1.87,1.87,0,0,1,1.14-1.82.89.89,0,0,0,.51-.23c.65-.65,1.29-1.31,1.9-1.95a3.91,3.91,0,0,0,.36-.67A6.26,6.26,0,0,1,253.48,177.92Zm12.22-33.15a1.77,1.77,0,0,0-1.57-.68,20,20,0,0,1-10-2.71,10,10,0,0,0-3.19-1.07,1.52,1.52,0,0,1,.12.52c-.25,1.55.9,2.28,1.8,3.16.39.37.74.76,1.17,1.2l2.66-.71a1.41,1.41,0,0,1,1.74.64,15.69,15.69,0,0,0,1.49,1.56c.48.53.36.67-.19,1.07-1.35,1-2.93,1.72-3.9,3.1a1.71,1.71,0,0,1-.49.44c-.85.56-1.71,1.09-2.56,1.64a2.36,2.36,0,0,1-3.21-.88,1.87,1.87,0,0,1-.15-.32,9.24,9.24,0,0,0-1.86-3.41,8.29,8.29,0,0,1-1-1.95,3.43,3.43,0,0,0-1.72-1.74,2.39,2.39,0,0,1-1.42-1.51c-.34-1-.82-1.9-1.22-2.85-1,.39-1,.39-.69,1.34a17.07,17.07,0,0,0,2.1,4.57c1.44,2.28,3.11,4.45,4,7,.24.69.41,1.4.68,2.06.41,1,.85,1.1,1.78.56a.73.73,0,0,1,.31-.14H254a26.2,26.2,0,0,1-.59,2.93,5.1,5.1,0,0,1-1.14,2.17,19.53,19.53,0,0,1-2.66,2,1.82,1.82,0,0,0-.57.6c-1,1.95-2,3.83-3.06,5.72a1,1,0,0,0,0,1.27c1.43,1.54,1,3.41,1,5.21,0,.2-.32.46-.57.59a9.07,9.07,0,0,0-3,2.22,3.39,3.39,0,0,0-.68,1.4,11.28,11.28,0,0,1-1.45,4.38c-1.16,2-2.17,4-3.23,6a1.22,1.22,0,0,1-1.08.8l-3.07.13c-.44,0-.88.14-1.33.17a.81.81,0,0,1-.62-.17,12.76,12.76,0,0,1-1-.88,5.7,5.7,0,0,0-.76-2.93,5.84,5.84,0,0,0-.68-1,6,6,0,0,1-1.05-3.27,4.36,4.36,0,0,0-.59-1.89,9,9,0,0,1-1.41-3.9A6.6,6.6,0,0,1,227,175a5,5,0,0,1,.4-.92,2.74,2.74,0,0,0,.16-2,16.75,16.75,0,0,0-2.93-6.42,1.67,1.67,0,0,1,0-1.75c.2-.44.47-.86.72-1.29s.25-.67-.21-.84a1.2,1.2,0,0,1-.87-1c0-.13-.39-.33-.58-.32a2.93,2.93,0,0,1-2.44-.88c-.32-.32-1-.32-1.57-.35a4.33,4.33,0,0,0-1.18.23l-5.52,1.32a2.51,2.51,0,0,1-2.45-.77,3.76,3.76,0,0,0-.55-.5,2.81,2.81,0,0,1-1.34-2.28,1.29,1.29,0,0,0-.71-1c-1.67-.53-1.89-2.05-2.35-3.37a1.49,1.49,0,0,1,.32-1.15,1.32,1.32,0,0,0,.3-1.54,4.48,4.48,0,0,1,.37-4.27,6,6,0,0,1,1.89-2.34c.32-.2.41-.76.71-1a6.42,6.42,0,0,0,1.87-3.18,3.78,3.78,0,0,1,1.08-1.27c.67-.65,1.39-1.22,2-1.87.37-.34.63-.37.9.1a.68.68,0,0,0,.54.32c1-.11,2-.26,3.05-.4a4.83,4.83,0,0,1,.92-.18,9.31,9.31,0,0,0,4.25-.92,1.33,1.33,0,0,1,1,.07c.1,0,.1.46.08.69a2.24,2.24,0,0,0,.93,1.78l1.49,1.44c.11.08.21.22.33.24,1,.16,2,.35,3.06.44.51,0,.85-.19,1-.81.14-.46.68-.82,1-1.22a1.89,1.89,0,0,0,.09.21,3.48,3.48,0,0,0,.72.6,8.48,8.48,0,0,0,1.74.71,5,5,0,0,0,1.34,0,4.57,4.57,0,0,1,.74,0c1.07.16,2.14.29,3.21.51a1,1,0,0,0,1-.3,2.22,2.22,0,0,0,1.12-2.65,12.6,12.6,0,0,1-.22-1.37,2.37,2.37,0,0,0-2.06.17,2,2,0,0,1-2.43-.22,5,5,0,0,1-2.2-2.93c1,.51,1.46-.12,1.95-1.05-1.28.3-2.45.55-3.59.87a.71.71,0,0,0-.53.87.85.85,0,0,0,.09.22.7.7,0,0,1,.12.44,3.23,3.23,0,0,1-.22.75c-.32-.13-.8-.18-1-.44-.24-.41-.32-.87-.84-1a.31.31,0,0,1-.16-.21c.1-1.08-.86-1.61-1.31-2.4-.09-.19-.49-.31-.76-.32a2.22,2.22,0,0,1-1.8-.92,2.22,2.22,0,0,0-.58-.64c-.36-.28-.8-.46-1.14,0a.84.84,0,0,0-.07,1.2.46.46,0,0,0,.07.07,6.17,6.17,0,0,0,2.3,1.71c.62.18.9.75,1.19,1.29-1.29.69-2.14.45-2.83-.72a10.26,10.26,0,0,0-.73-.9,14.92,14.92,0,0,0-1.41-1.57c-.67-.61-2-.66-2.17.53a2.22,2.22,0,0,1-.09.37l-.46-.14a1.61,1.61,0,0,0-2.09.79c-.17.26-.42.48-.61.72a2.27,2.27,0,0,0-.46.64,2.59,2.59,0,0,1-2,1.95,21.32,21.32,0,0,1-3.9.33c-.21,0-.55-.36-.57-.56a10.92,10.92,0,0,1,0-2.68,1.87,1.87,0,0,1,2-1.49h2.72c.33,0,.55-.11.51-.51a3.84,3.84,0,0,1,0-.48c.19-1.06.14-1.19-.83-1.76-.28-.17-.6-.29-.89-.45-.14-.09-.33-.26-.31-.36a.51.51,0,0,1,.33-.37,4.64,4.64,0,0,1,1-.19,3.57,3.57,0,0,0,3.41-2.12,2.16,2.16,0,0,1,1.78-1.36c1.28-.2,1.53-.52,1.69-1.86a4.82,4.82,0,0,1,.37-1h.26a11.3,11.3,0,0,1,.55,1.4,1.14,1.14,0,0,0,1,1,9.14,9.14,0,0,0,1.48,0c.85-.11,1.68-.28,2.53-.4.3,0,.48,0,.59-.45s.49-.61.78-.88.68-.43.7-1a1.43,1.43,0,0,1,1.35-1,1.06,1.06,0,0,1,.66.45,4.36,4.36,0,0,1,.39,1,3.22,3.22,0,0,0,1-3.22,5.88,5.88,0,0,1-1,.21,5.24,5.24,0,0,1-1.48,0c-1.4-.31-1.61-1-.85-2.13.25-.42.55-1.25.42-1.34-.53-.39-1,.09-1.39.44a5.59,5.59,0,0,0-2,2.86,10,10,0,0,1-1.22,2.81c-.22.38-.91.53-1.42.6-.19,0-.48-.41-.68-.68a8.08,8.08,0,0,1-.52-.9.57.57,0,0,0-.07.22l-3,.15a4.21,4.21,0,0,1-.12-.42c-.43-2.15-.62-1.86,1.45-2.68a6.41,6.41,0,0,0,1.62-1.36c.48-.4,1-.81,1.41-1.21a1.42,1.42,0,0,0,.25-.24c1.41-1.88,3.51-2.19,5.62-2.52s3.72.51,5.53,1l3,.88c-1.38,1.11-2.63,0-3.8.21,0,.07-.08.13-.07.15a24.7,24.7,0,0,0,2.16,2.06,1,1,0,0,0,1.39-.46.75.75,0,0,0,.08-.24c.12-.43.31-.63.75-.63a1.45,1.45,0,0,0,1.32-.9c.22-.45.52-.66,1-.47-.07.53.17.76.68.6a2.38,2.38,0,0,0,.55-.28,3.13,3.13,0,0,1,2-.46,10.11,10.11,0,0,0,2.93-.59c.88-.24,1.36-.15,1.82.34a64.56,64.56,0,0,1,10.49,14.49,62.87,62.87,0,0,1,6.62,20.14.89.89,0,0,1,0,.23c-1.47.37-2.18-.78-3-1.65Z" transform="translate(-5.32 0)"/><path class="cls-4" d="M268.78,146.46c-1.58.33-2.29-.82-3.12-1.69a1.75,1.75,0,0,0-1.57-.68c-2.12.3-4.09-.37-6.09-1a14.26,14.26,0,0,1-3.9-1.75,9.17,9.17,0,0,0-3.18-1.05,1.52,1.52,0,0,1,.12.51c-.25,1.55.89,2.28,1.8,3.16.38.36.74.76,1.17,1.2l2.67-.71a1.42,1.42,0,0,1,1.73.64,14.67,14.67,0,0,0,1.49,1.56c.49.53.37.67-.19,1.07-1.35,1-2.93,1.71-3.9,3.09a2,2,0,0,1-.5.45l-2.57,1.64a2.35,2.35,0,0,1-3.2-.87,1.87,1.87,0,0,1-.15-.32,9.33,9.33,0,0,0-1.85-3.42,8.49,8.49,0,0,1-1-1.95,3.38,3.38,0,0,0-1.71-1.74,2.39,2.39,0,0,1-1.42-1.51,28.11,28.11,0,0,0-1.23-2.85c-1,.39-1,.39-.69,1.33a17.33,17.33,0,0,0,2.11,4.58c1.45,2.28,3.12,4.45,4,7,.24.69.41,1.39.68,2.06.41,1,.85,1.11,1.78.55a.66.66,0,0,1,.3-.12H254a26.48,26.48,0,0,1-.59,2.92,5.26,5.26,0,0,1-1.13,2.17,21.86,21.86,0,0,1-2.66,2,2,2,0,0,0-.59.61c-1,2-2,3.84-3.05,5.73a1,1,0,0,0,0,1.27c1.42,1.52,1,3.41,1,5.2,0,.2-.32.46-.55.59a9.25,9.25,0,0,0-3,2.22,3.37,3.37,0,0,0-.67,1.4,11.48,11.48,0,0,1-1.47,4.38c-1.14,2-2.16,4-3.21,6a1.28,1.28,0,0,1-1.08.8c-1,.07-2.07.11-3.11.19-.44,0-.88.14-1.33.17a.94.94,0,0,1-.57-.24c-.37-.29-.7-.63-1-.89a5.84,5.84,0,0,0-.77-2.93,9.28,9.28,0,0,0-.67-1,6,6,0,0,1-1.07-3.26,4.49,4.49,0,0,0-.58-1.89,9.15,9.15,0,0,1-1.42-3.9A6.61,6.61,0,0,1,227,175a4,4,0,0,1,.41-1,2.77,2.77,0,0,0,.15-2,16.79,16.79,0,0,0-2.93-6.43,1.64,1.64,0,0,1,0-1.73,11.66,11.66,0,0,1,.74-1.29c.25-.38.24-.68-.23-.85a1.14,1.14,0,0,1-.85-1c0-.14-.39-.34-.59-.33a2.91,2.91,0,0,1-2.43-.88c-.32-.32-1-.32-1.58-.35a4,4,0,0,0-1.18.24L213,160.69a2.53,2.53,0,0,1-2.46-.77,4.28,4.28,0,0,0-.55-.49,2.81,2.81,0,0,1-1.33-2.3,1.29,1.29,0,0,0-.72-.93c-1.67-.53-1.89-2-2.34-3.38a1.43,1.43,0,0,1,.31-1.14,1.33,1.33,0,0,0,.3-1.55,4.52,4.52,0,0,1,.37-4.26,6,6,0,0,1,1.89-2.33c.32-.22.4-.77.71-1a6.56,6.56,0,0,0,1.88-3.18,3.64,3.64,0,0,1,1.06-1.28c.67-.63,1.4-1.22,2.07-1.84.36-.35.62-.4.9.09a.71.71,0,0,0,.53.32c1-.11,2-.27,3.05-.41a4.83,4.83,0,0,1,.92-.18,9.25,9.25,0,0,0,4.26-1,1.41,1.41,0,0,1,1,.08c.11.05.11.46.09.7a2.23,2.23,0,0,0,1,1.78c.48.49,1,1,1.48,1.43.1.09.21.22.33.24,1,.17,2,.35,3,.44.52.05.86-.19,1-.81.12-.47.66-.82,1-1.22l.1.21a4.1,4.1,0,0,0,.72.6,8.75,8.75,0,0,0,1.74.72,5,5,0,0,0,1.34-.05h.73c1.08.16,2.15.3,3.21.52a1.08,1.08,0,0,0,1-.31,2.24,2.24,0,0,0,1.11-2.64,10.39,10.39,0,0,1-.21-1.36,2.36,2.36,0,0,0-2.07.15,2,2,0,0,1-2.43-.22,5,5,0,0,1-2.2-2.88c1,.51,1.47-.11,2-1-1.29.3-2.45.54-3.59.86a.71.71,0,0,0-.53.86.67.67,0,0,0,.1.23.92.92,0,0,1,.12.45,5,5,0,0,1-.23.75c-.32-.14-.79-.2-1-.44-.23-.4-.33-.87-.84-1a.27.27,0,0,1-.16-.2c.1-1.09-.86-1.62-1.31-2.42a1.12,1.12,0,0,0-.76-.32,2.14,2.14,0,0,1-1.79-.92,2.76,2.76,0,0,0-.6-.63c-.35-.28-.79-.46-1.13,0a.82.82,0,0,0-.11,1.16l.11.1a6.11,6.11,0,0,0,2.29,1.73c.62.18.91.74,1.19,1.29a1.83,1.83,0,0,1-2.57-.28,2,2,0,0,1-.26-.45,8.75,8.75,0,0,0-.72-.89,17.9,17.9,0,0,0-1.42-1.59c-.67-.6-2-.65-2.16.54,0,.13-.07.25-.11.37l-.44-.12a1.6,1.6,0,0,0-2.1.78,8.29,8.29,0,0,1-.62.71,2.23,2.23,0,0,0-.45.65,2.57,2.57,0,0,1-2,2,23.27,23.27,0,0,1-3.91.33c-.18,0-.53-.36-.55-.57a11.92,11.92,0,0,1,0-2.67,1.86,1.86,0,0,1,1.95-1.49h2.72c.35,0,.56-.09.52-.5a1.85,1.85,0,0,1,0-.47c.17-1.07.12-1.19-.84-1.76-.29-.18-.61-.29-.9-.46s-.31-.25-.3-.37a.54.54,0,0,1,.32-.37,4.8,4.8,0,0,1,1.06-.18,3.55,3.55,0,0,0,3.4-2.11,2.09,2.09,0,0,1,1.77-1.35c1.3-.22,1.53-.54,1.71-1.88a5.68,5.68,0,0,1,.34-1h.29a10.31,10.31,0,0,1,.53,1.4c.15.55.42.92,1,1a7.32,7.32,0,0,0,1.48,0c.84-.1,1.68-.27,2.52-.38.32,0,.5-.06.6-.46s.49-.61.77-.89.69-.42.69-1,.89-1.1,1.37-1a1.16,1.16,0,0,1,.67.48,4.77,4.77,0,0,1,.38,1,3.27,3.27,0,0,0,1-3.22,7.26,7.26,0,0,1-1,.22,5.24,5.24,0,0,1-1.48,0c-1.39-.31-1.61-1-.86-2.12.26-.41.55-1.26.42-1.36-.51-.39-1,.11-1.38.45a5.82,5.82,0,0,0-2,2.86,10.5,10.5,0,0,1-1.21,2.82c-.22.36-.91.51-1.42.59-.2,0-.49-.41-.69-.68a9,9,0,0,1-.52-.91l-.07.23-2.93.16c-.05-.18-.1-.3-.13-.42-.43-2.16-.61-1.87,1.45-2.69a7.07,7.07,0,0,0,1.64-1.35l1.4-1.23a1.71,1.71,0,0,0,.25-.22c1.4-1.89,3.5-2.2,5.61-2.53s3.73.5,5.55,1c1,.26,1.88.55,3,.88-1.37,1.09-2.63,0-3.8.2,0,.08-.08.14-.07.15a22.07,22.07,0,0,0,2.16,2,1,1,0,0,0,1.39-.45,1.06,1.06,0,0,0,.09-.25c.11-.42.29-.62.73-.62a1.44,1.44,0,0,0,1.32-.91c.24-.45.53-.64,1-.46-.08.53.17.75.68.59a2.73,2.73,0,0,0,.54-.27,3.25,3.25,0,0,1,2-.46,9.72,9.72,0,0,0,2.87-.59,1.6,1.6,0,0,1,1.82.33A64.21,64.21,0,0,1,262.09,126a63.11,63.11,0,0,1,6.63,20.15A1.55,1.55,0,0,1,268.78,146.46Z" transform="translate(-5.32 0)"/><path class="cls-4" d="M168.67,121.76l-.47,2.7a1.84,1.84,0,0,0,1.64-.85c1.1-1.56,2.25-3.09,3.38-4.63.17-.23.35-.47.51-.72a2.92,2.92,0,0,1,3.41-1.52c.76.12,1.29.29,1.23,1.21,0,.12.35.38.55.4a4.77,4.77,0,0,0,2.93-.69,2.13,2.13,0,0,1,.13.43,3.11,3.11,0,0,1,0,.61,3.23,3.23,0,0,0,2,3.81l.29.15a6.36,6.36,0,0,1-4.1,1.79,6,6,0,0,0-3,.8,16.68,16.68,0,0,1-2.38.91,3.86,3.86,0,0,0-.77.63l.1.21,3-.28c-.12.75,0,1.19.78,1.25.29,0,.55.42.92.73-1.31.25-1.95,1.69-3.63,1.34l1.3-1.21c-.61-.67-.76-.73-1.58-.22s-1.52,1.11-2.29,1.68c-.19.14-.38.38-.59.42-1.36.24-2,1.35-2.87,2.22a2.33,2.33,0,0,1-1.63,1,1.13,1.13,0,0,0-.73.27,1.4,1.4,0,0,0-.43.8,2.76,2.76,0,0,1-1.58,2.74,17.7,17.7,0,0,0-2.64,1.74,2.51,2.51,0,0,0-.51,2.79,2.4,2.4,0,0,1,0,2.09c-.06.16-.46.3-.7.31s-.41-.25-.46-.43c-.22-.84-.35-1.71-.57-2.55a4.32,4.32,0,0,0-.44-.82l-.17.07v1l-.15.11c-.21-.24-.44-.48-.68-.71a4.48,4.48,0,0,0-1.05-.78.83.83,0,0,0-1.1.36c-.41.55-.89,1.05-1.31,1.53-.35-.42-.72-.82-1.1-1.21a.8.8,0,0,0-.62-.14,3.24,3.24,0,0,0-2.06,1.18,14.15,14.15,0,0,1-1.82,1.81,1.5,1.5,0,0,0-.44,1.95,1.64,1.64,0,0,1,.08.85,3.16,3.16,0,0,0,2.28,3.66,1.81,1.81,0,0,0,2.18-.86c.18-.36.3-.75.46-1.12a.82.82,0,0,1,1-.54l.08,0a1.25,1.25,0,0,1,.34,1,12,12,0,0,1-.59,1.87c-.21.68-.05,1,.68,1.15a14.36,14.36,0,0,0,1.6.24,1,1,0,0,1,1,1,.53.53,0,0,1,0,.22,11,11,0,0,0,.07,2.36,2.63,2.63,0,0,0,.73,1.22.9.9,0,0,0,.83.08,1.71,1.71,0,0,1,1.61-.16,4.81,4.81,0,0,0,.65.18c1,.23,1.22.07,1.87-.64a5.81,5.81,0,0,1,1.47-1,.51.51,0,0,1,.47.13.41.41,0,0,1,0,.45c-.53.48-.24.72.23.91l1.14.48c-.73-1.18.24-1.59.67-2.29a3.45,3.45,0,0,1,.5.35,3.06,3.06,0,0,0,2.5,1,4.87,4.87,0,0,1,3.45,1.38,10,10,0,0,0,4.43,2.22,2.37,2.37,0,0,1,1.71,1.18c.3.51.68,1,1,1.45a1,1,0,0,1,.08,1.38,1,1,0,0,1-.56.31l-.76.37c.21.39.43.51.82.3a2.31,2.31,0,0,1,.87-.33,1,1,0,0,1,.63.3s-.1.28-.14.44-.12.36-.08.39a.79.79,0,0,0,.47.12.64.64,0,0,0,.35-.19,1.4,1.4,0,0,1,2-.16,1.21,1.21,0,0,1,.16.16c.09.07.25.13.25.19.11,1.12.87.67,1.34.48a1.77,1.77,0,0,1,1.46.09c1.17.5,2.39.91,3.6,1.33a.86.86,0,0,1,.65.82,6.38,6.38,0,0,1-1.65,5.24.9.9,0,0,1-.36.31c-.53.22-.58.66-.6,1.16a33.09,33.09,0,0,1-.18,3.72,7.82,7.82,0,0,1-.79,2.2c-.26.57-.53,1.16-1.43,1-.4-.06-.92.33-1.32.61a9.21,9.21,0,0,0-2,1.45,4.66,4.66,0,0,0-.6,1.66,26,26,0,0,1-.88,3.17c-.26.6-1,1-1.43,1.51a2.29,2.29,0,0,1-3,.61c-.26.74.23,1.2.52,1.69.45.79.44.78-.3,1.32s-1.3,1.06-2,1.59a1.8,1.8,0,0,0-.49,1.73,6.19,6.19,0,0,1-.22,1.61,4.05,4.05,0,0,0-.12.84c.07.57.24,1.11.31,1.67.12.93.19,1.87.28,2.8,0,.36.13.59.56.61a.74.74,0,0,1,.47.39c.25.53.46,1.07.68,1.59A1.37,1.37,0,0,1,176,207l0,0a2.93,2.93,0,0,0-1.57-1.41,4.86,4.86,0,0,1-2.48-2.43c-.6-1.18-1.26-2.21-1.08-3.65a1.89,1.89,0,0,0-1.19-2.21c-.15-.05-.29-.4-.31-.62-.11-.92-.16-1.84-.24-2.76-.18-2-.42-3.9-.54-5.86-.08-1.45,0-2.92,0-4.39v-2a4.24,4.24,0,0,0-3-3.71,1.84,1.84,0,0,1-1.51-2,2.1,2.1,0,0,0-1.15-1.95,4.5,4.5,0,0,1-2.08-2.48,2.37,2.37,0,0,0-.57-.83,2,2,0,0,1-.59-2,6.84,6.84,0,0,0-.1-1.43,3.54,3.54,0,0,1-.08-1,6.19,6.19,0,0,1,1-2.62,13.8,13.8,0,0,0,1.42-2.72,2.47,2.47,0,0,0-.85-2.92,1.09,1.09,0,0,0-1,0,1.8,1.8,0,0,1-2-.12,8.51,8.51,0,0,1-2.85-3.08,1,1,0,0,0-.5-.4,3.14,3.14,0,0,0-.91-.19,3.18,3.18,0,0,1-2.19-1.09,3.14,3.14,0,0,0-2.64-1,1.34,1.34,0,0,1-.4,0,11,11,0,0,1-5.13-3,2.4,2.4,0,0,1-.45-2,62.79,62.79,0,0,1,10.74-27.74c1.31-1.87,2.79-3.61,4.19-5.4.21-.28.44-.4.74-.18a1.83,1.83,0,0,0,1.41.2c1.14-.15,2.32-.09,3.43-.33a21.28,21.28,0,0,0,4-1.25,3.5,3.5,0,0,0,1.76-2.58c.09-.31.19-.61.29-.91.33-1.11.33-1.1,1.47-.84l2.34.53c-.66.22-1.33.44-2,.71-.39.14-.44.4-.16.73.46.56.89,1.14,1.36,1.67a.67.67,0,0,0,.6.2c1-.57,2-.34,2.93-.4a6.81,6.81,0,0,1-.91,1.24,2.81,2.81,0,0,1-1.24.53c-1.16.24-2.34.39-3.51.58a1.63,1.63,0,0,1-1.66,1.39,8.56,8.56,0,0,0-4.12,1.89,1.94,1.94,0,0,0-.86,2.45c.11.37.23.83.83.54a1.49,1.49,0,0,1,.43.12c.55.29,1.1.61,1.66.89s1,.6,1.56.38A.48.48,0,0,1,168.67,121.76Z" transform="translate(-5.32 0)"/><path class="cls-4" d="M186.6,106.08c1.43-.23,2.8-.42,4.15-.68a11.48,11.48,0,0,0,1.7-.61,9.09,9.09,0,0,1,4.64-.88c1.5.22,3,.33,4.51.45a1.64,1.64,0,0,0,1.54-.5c.16-.2.57-.23.88-.29,1.18-.19,2.35-.41,3.54-.53a7.34,7.34,0,0,1,1.87.09c1.44.23,2.92.51,4.32.77a1.18,1.18,0,0,1,.63.29,17.94,17.94,0,0,0-1.8.13,3.36,3.36,0,0,0-1.09.27c-.56.27-1.05.56-1.08,1.36a1.72,1.72,0,0,1-1.35,1.65c-.78.29-1.55.62-2.3,1-.39.18-.39.4,0,.62l1.68.92c-.91.38-.91.38-2.82-.5l.81,1.33c-1.22.33-2.49.7-3.77,1a6.93,6.93,0,0,0-3.2,1.51,5.92,5.92,0,0,1-3.14,1.07c-.59.11-1.08.22-1.07,1a1.48,1.48,0,0,1-.51.83,5.25,5.25,0,0,1-1,.78,2,2,0,0,1-2.81-.45,2,2,0,0,1-.38-1.2,4.48,4.48,0,0,1-.07-1.21A5.91,5.91,0,0,1,191,113a2.4,2.4,0,0,1,.45-.5c1.67-1.8,1.3-3.69-.85-4.88a7.12,7.12,0,0,0-2.93-1A3,3,0,0,1,186.6,106.08Z" transform="translate(-5.32 0)"/><path class="cls-4" d="M175.55,107.68c.49-.84,1-1.09,1.88-.7a3.38,3.38,0,0,0,2.66.2l.14.14c-.13.18-.23.46-.39.53-.41.16-.87.19-1.29.34a.76.76,0,0,0-.41.45.59.59,0,0,0,.35.4c1.68.5,3.37,1,5,1.44a.56.56,0,0,1,.3.41,1.82,1.82,0,0,1-.12.65c-.26,1.2.07,1.64,1.3,1.66a.85.85,0,0,1-.7.89c-.8.22-1.59.46-2.38.72-.36.12-.75.25-.64.78a.55.55,0,0,1-.18.33,2,2,0,0,1-2.32-.08,1.18,1.18,0,0,1,.68-2c.48-.13,1-.16,1.45-.29a1,1,0,0,0,.56-.38,1.27,1.27,0,0,0-.31-.54,6.9,6.9,0,0,0-4.51-1.77c-.91-.06-1.83-.16-2.75-.26-.39,0-.89,0-.92-.59a.83.83,0,0,1,.67-1h.2a15.81,15.81,0,0,0,1.82-.19c.26,0,.65-.23.69-.42.09-.43-.18-.71-.66-.72C175.68,107.77,175.64,107.73,175.55,107.68Z" transform="translate(-5.32 0)"/><path class="cls-4" d="M253.26,173.6a6.21,6.21,0,0,1,.19,4.31c-.49,1.25-.8,2.58-1.21,3.86a7.26,7.26,0,0,1-.54,1.08c-.64,1.19-.64,1.19-2,1a2,2,0,0,1-1.23-2.48v0a6.88,6.88,0,0,0,.82-1.38,3.69,3.69,0,0,0,0-1.62,1.84,1.84,0,0,1,1.14-1.8,1,1,0,0,0,.51-.25c.65-.65,1.28-1.3,1.9-1.95A3,3,0,0,0,253.26,173.6Z" transform="translate(-5.32 0)"/><path class="cls-4" d="M191.69,103.13a8.21,8.21,0,0,1-3.9,1.73,14.48,14.48,0,0,0-5.55,2.17c-.55.34-1.08.63-1.49-.22-.07-.15-.37-.23-.59-.26a9.94,9.94,0,0,1-1.54-.28,1.75,1.75,0,0,1,.51-.34c.42-.14.86-.21,1.3-.34s1-.21,1.23-.87a1,1,0,0,1,.65-.55c.88-.2,1.79-.32,2.68-.46a7.46,7.46,0,0,0,1.63-.24,7.23,7.23,0,0,1,3.12-.46c.32,0,.66-.08,1-.09s.63,0,1,0Z" transform="translate(-5.32 0)"/><path class="cls-4" d="M216.6,122.11c-.38-.58-.93-.86-1.32-.6-1.12.76-1.21,1-.68,1.79l-2.23.84c-.15-.79.75-1.48,0-2.18a1.67,1.67,0,0,1,1.5-.83h.88c.47,0,.83-.17.76-.76a.76.76,0,0,1,.11-.53c.17-.26.38-.63.64-.68s.55.22.92.4c-.67.69-.39,1.07.21,1.37a.81.81,0,0,1,.34.32,6.44,6.44,0,0,0,.64,1.32,4.85,4.85,0,0,0,1.34.78,12.81,12.81,0,0,1-1.25,1,5.14,5.14,0,0,1-1.36.59,4.5,4.5,0,0,1-1.16,0v-.23l.81-.51c-.28-.35-.72-.65-.75-1S216.38,122.51,216.6,122.11Z" transform="translate(-5.32 0)"/><path class="cls-4" d="M206.53,114.36a8.93,8.93,0,0,1,.85-.35c.9-.24,1.81-.48,2.71-.7.44-.11,1-.11,1.09.37a1,1,0,0,1-.42.84,10,10,0,0,1-1.74.85,1.26,1.26,0,0,1-1.57-.36c-.18-.23-.56-.29-.87-.42Z" transform="translate(-5.32 0)"/><path class="cls-4" d="M180.74,127a6,6,0,0,1,2.88-2.24l-.58.51c.26.13.51.17.64.31s.66.7.59.92a.91.91,0,0,1-1.06.68C182.42,127,181.62,127,180.74,127Z" transform="translate(-5.32 0)"/></g><rect class="cls-2" x="264.92" y="183.59" width="5.09" height="94.63" transform="translate(-90.82 214.54) rotate(-38.15)"/><path class="cls-5" d="M239.25,209.51l-.1.74A64.39,64.39,0,1,1,195.43,91.54,90,90,0,0,0,183,104.05c-.72.9-1.47,1.83-2.18,2.79-.58.76-1.16,1.55-1.71,2.36-.41.59-.83,1.22-1.24,1.85a65.34,65.34,0,0,0-4.1,7.24h0a55,55,0,0,0-4.89,14.83,47.46,47.46,0,0,0,2,23.43,58.35,58.35,0,0,0,5.05,11,102.34,102.34,0,0,0,10.74,15.1C210.87,210.92,239.25,209.51,239.25,209.51Z" transform="translate(-5.32 0)"/><path class="cls-2" d="M354.54,280.92,286,280.38a4.89,4.89,0,0,1-4.77-3.82l-12.45-53.89a4.89,4.89,0,0,1,3.58-5.91,4.82,4.82,0,0,1,1.31-.13l68.54.54A5,5,0,0,1,347,221l12.43,53.81a5,5,0,0,1-3.69,6A4.56,4.56,0,0,1,354.54,280.92Z" transform="translate(-5.32 0)"/><path class="cls-6" d="M350.46,275.14l-61.83-.49a4.44,4.44,0,0,1-4.3-3.31L273,224.6a4.3,4.3,0,0,1,3.28-5.13,4.38,4.38,0,0,1,1.09-.1l61.86.5a4.39,4.39,0,0,1,4.3,3.31l11.25,46.72a4.3,4.3,0,0,1-4.33,5.24Z" transform="translate(-5.32 0)"/><path class="cls-2" d="M286.93,278.3l89.42.72a3,3,0,0,1,3,3h0a3,3,0,0,1-3,3l-89.42-.72a3,3,0,0,1-3-3v-.08a3,3,0,0,1,3-3Z" transform="translate(-5.32 0)"/><rect class="cls-2" x="358.42" y="243.98" width="6.04" height="77.34" rx="2.72" transform="translate(69.87 641.24) rotate(-89.43)"/><rect class="cls-7" x="358.42" y="243.98" width="6.04" height="77.34" rx="2.72" transform="translate(69.87 641.24) rotate(-89.43)"/><line class="cls-8" x1="222.96" y1="98.33" x2="256.84" y2="53.48"/><path class="cls-2" d="M368.41,105.66c-1.68,6.44-9.3,5.25-9.3,5.25s-44.27.83-45.1,0c-.67-.68-.23-3.29-.07-4.21a.7.7,0,0,1,.07-.33h12.65s6-3.1-3.82-17.16c-8.21-11.84,22.8-12.36,32.93-12.24,2,0,3.1.07,3.1.07S370.07,99.22,368.41,105.66Z" transform="translate(-5.32 0)"/><path class="cls-2" d="M363.16,101.13c-1.66,6.45-9.31,5.24-9.31,5.24s-28,.54-39.91.33a.7.7,0,0,1,.07-.33h12.65s6-3.1-3.82-17.16c-8.21-11.84,22.8-12.36,32.93-12.24C358.94,83.78,364.36,96.51,363.16,101.13Z" transform="translate(-5.32 0)"/><path class="cls-9" d="M365,102.08c-1.66,6.44-11.11,4.29-11.11,4.29s-28,.54-39.91.33a.7.7,0,0,1,.07-.33h12.65s6-3.1-3.82-17.16c-8.21-11.84,22.8-12.36,32.93-12.24C358.94,83.78,366.17,97.46,365,102.08Z" transform="translate(-5.32 0)"/><rect class="cls-2" x="275.14" y="13.34" width="112.35" height="75.39" rx="8.9"/><rect class="cls-10" x="275.14" y="13.34" width="112.35" height="75.39" rx="8.9"/><rect class="cls-2" x="272.76" y="13.34" width="112.35" height="75.39" rx="8.9"/><rect class="cls-11" x="272.76" y="13.34" width="112.35" height="75.39" rx="8.9"/><path class="cls-2" d="M390.35,72.35l.07,7.48a8.89,8.89,0,0,1-8.9,8.9H287a8.89,8.89,0,0,1-8.89-8.9L278,72.35Z" transform="translate(-5.32 0)"/><rect class="cls-12" x="308.69" y="106.72" width="44.1" height="4.19"/><path class="cls-13" d="M365,102.08l.42,7.52a9.37,9.37,0,0,1-7.27,1.31v-4.19S364.37,108.52,365,102.08Z" transform="translate(-5.32 0)"/><path class="cls-14" d="M308.77,254.16a2.38,2.38,0,0,1-2.21-3.19l5.93-13.38a2,2,0,0,1,2.78-.82,2.35,2.35,0,0,1,1.15,2.91l-5.9,13.38A1.86,1.86,0,0,1,308.77,254.16Z" transform="translate(-5.32 0)"/><path class="cls-14" d="M323.78,254.16a2.43,2.43,0,0,1-2-1.1l-9-13.38a2,2,0,0,1,.48-2.91,2.24,2.24,0,0,1,3,.82L325.24,251a1.92,1.92,0,0,1-1.46,3.19Z" transform="translate(-5.32 0)"/><path class="cls-14" d="M316.2,249.9h-7.92A1.87,1.87,0,0,0,306.4,252a2.44,2.44,0,0,0,2.36,2.13h7.9a1.85,1.85,0,0,0,1.88-2.13A2.47,2.47,0,0,0,316.2,249.9Z" transform="translate(-5.32 0)"/><path class="cls-4" d="M325.64,252a1.84,1.84,0,0,1-1.86,2.13A2.47,2.47,0,0,1,321.4,252a1.84,1.84,0,0,1,1.86-2.12A2.47,2.47,0,0,1,325.64,252Z" transform="translate(-5.32 0)"/><path class="cls-4" d="M310.66,252a1.87,1.87,0,0,1-1.88,2.13,2.44,2.44,0,0,1-2.36-2.13,1.87,1.87,0,0,1,1.89-2.12A2.43,2.43,0,0,1,310.66,252Z" transform="translate(-5.32 0)"/><path class="cls-4" d="M316.55,238.6a1.83,1.83,0,0,1-1.84,2.12,2.44,2.44,0,0,1-2.35-2.12,1.85,1.85,0,0,1,1.85-2.13A2.44,2.44,0,0,1,316.55,238.6Z" transform="translate(-5.32 0)"/><path class="cls-14" d="M324.19,56.73a2.87,2.87,0,0,1-1.38-.36,2.82,2.82,0,0,1-1.08-3.84l9.87-17.61a2.82,2.82,0,1,1,4.92,2.76l-9.87,17.61A2.83,2.83,0,0,1,324.19,56.73Z" transform="translate(-5.32 0)"/><path class="cls-14" d="M343.93,56.73a2.82,2.82,0,0,1-2.46-1.44L331.6,37.68a2.82,2.82,0,1,1,4.91-2.76l9.87,17.61a2.82,2.82,0,0,1-2.45,4.2Z" transform="translate(-5.32 0)"/><path class="cls-14" d="M334.62,51.12H324.16a2.81,2.81,0,1,0,0,5.61h10.4a2.81,2.81,0,0,0,.05-5.61Z" transform="translate(-5.32 0)"/><circle class="cls-4" cx="338.62" cy="53.93" r="2.79"/><circle class="cls-4" cx="318.87" cy="53.93" r="2.79"/><circle class="cls-4" cx="328.74" cy="36.25" r="2.79"/><path class="cls-15" d="M48.28,122.61a2.83,2.83,0,0,1-2.83-4l8.2-18.44a2.82,2.82,0,1,1,5.15,2.29L50.59,121A2.82,2.82,0,0,1,48.28,122.61Z" transform="translate(-5.32 0)"/><path class="cls-15" d="M67.94,120.79a2.83,2.83,0,0,1-2.59-1.21L53.9,103a2.82,2.82,0,0,1,4.64-3.19L70,116.38a2.81,2.81,0,0,1-.72,3.92A2.92,2.92,0,0,1,67.94,120.79Z" transform="translate(-5.32 0)"/><path class="cls-15" d="M58.15,116.06h0l-10.41,1h0a2.81,2.81,0,0,0,.52,5.59h.1l10.15-.94h.1a2.81,2.81,0,0,0-.46-5.6Z" transform="translate(-5.32 0)"/><circle class="cls-2" cx="62.37" cy="118" r="2.79"/><circle class="cls-2" cx="42.7" cy="119.82" r="2.79"/><circle class="cls-2" cx="50.91" cy="101.3" r="2.79"/></svg>