<svg xmlns="http://www.w3.org/2000/svg" viewBox="0 0 1807.61 550.42"><defs><style>.cls-1{isolation:isolate;}.cls-2,.cls-4,.cls-5{fill:#fff;}.cls-2,.cls-4,.cls-7,.cls-8{mix-blend-mode:multiply;}.cls-3{fill:#0082c6;}.cls-4,.cls-8{opacity:0.8;}.cls-6,.cls-7,.cls-8{fill:#54a4db;}</style></defs><g class="cls-1"><g id="Layer_2" data-name="Layer 2"><path class="cls-2" d="M581.58,529.75c.16-.16.32-.32.47-.49.66-.7,1.3-1.41,1.93-2.13l.36-.44c.52-.61,1-1.23,1.52-1.86.15-.2.31-.39.46-.58.58-.76,1.14-1.52,1.69-2.3l.21-.31c.48-.69.95-1.4,1.4-2.11l.41-.64c.5-.81,1-1.62,1.46-2.45h0c.46-.83.91-1.67,1.34-2.52.11-.22.23-.45.34-.68.37-.75.73-1.5,1.07-2.27l.16-.33q.57-1.29,1.08-2.61l.26-.68c.28-.74.55-1.47.8-2.22.06-.18.13-.35.18-.53.3-.89.57-1.79.83-2.69l.18-.64c.2-.75.39-1.49.57-2.24.05-.22.11-.44.16-.66.2-.91.39-1.83.56-2.75,0-.18.06-.37.1-.55q.2-1.17.36-2.34c0-.24.07-.48.1-.72.12-.94.22-1.87.3-2.81l0-.37c.07-.84.11-1.68.15-2.51l0-.77c0-.94,0-1.89,0-2.84v-.05c0-.95-.06-1.9-.11-2.85,0-.2,0-.41,0-.62-.06-.93-.14-1.87-.24-2.8l-.06-.48c-.1-.86-.21-1.71-.35-2.57,0-.16,0-.32-.07-.47-.15-.94-.33-1.87-.52-2.8,0-.2-.09-.41-.13-.61-.21-.95-.43-1.91-.68-2.85h0c-.25-.95-.53-1.89-.82-2.83-.06-.2-.13-.4-.19-.6-.3-.92-.61-1.83-.95-2.74l-.18-.46c-.32-.83-.65-1.66-1-2.49-.06-.15-.12-.3-.19-.45-.39-.9-.81-1.79-1.24-2.68l-.29-.58c-.46-.91-.93-1.82-1.43-2.71L360.09,38h0c-.26-.57-.55-1.13-.83-1.69-.12-.24-.24-.48-.37-.72-.28-.55-.58-1.1-.88-1.64l-.26-.46c-.6-1-1.23-2.09-1.88-3.1-.13-.2-.25-.4-.38-.59-.33-.51-.67-1-1-1.49l-.51-.71q-1.68-2.34-3.55-4.52l-.65-.75c-.36-.42-.74-.83-1.11-1.23s-.49-.52-.74-.77c-.63-.66-1.28-1.31-1.94-1.94l-.88-.84-1.12-1c-.32-.28-.64-.56-1-.83l-1.12-.94c-.43-.35-.88-.7-1.32-1s-1-.79-1.56-1.17-.86-.62-1.29-.91l-1.09-.74L335.27,10l-1-.62c-.74-.44-1.48-.87-2.23-1.28l-.95-.5-1.61-.83-1-.48c-.66-.32-1.33-.62-2-.91l-.66-.29c-.82-.34-1.64-.66-2.48-1-.3-.12-.61-.22-.91-.33-.64-.23-1.29-.45-1.94-.66l-.86-.27c-.9-.28-1.81-.54-2.72-.78L316.35,2c-.77-.19-1.54-.37-2.32-.54l-.89-.18c-.77-.15-1.55-.29-2.33-.42l-.61-.1c-1-.14-1.94-.27-2.92-.37L306.52.3c-.77-.07-1.55-.13-2.33-.18l-.86,0c-1,0-2-.08-3-.08s-2,0-3,.08l-.68,0c-1,.05-2,.13-2.92.22l-.46,0c-.86.1-1.72.21-2.57.33L290,.8c-.93.15-1.86.31-2.77.5l-.69.14c-.79.17-1.58.35-2.36.55l-.55.13c-.88.23-1.74.48-2.6.74l-.84.26c-.77.25-1.53.5-2.28.77l-.79.3c-.68.25-1.35.52-2,.79l-1,.4c-.75.33-1.49.66-2.23,1l-1,.47-1.48.76-1.05.56c-.66.37-1.31.74-2,1.13-.39.23-.77.47-1.15.71l-1.1.7c-.64.42-1.26.85-1.89,1.28l-1,.69c-.43.31-.85.63-1.27,1l-.72.57c-.74.58-1.47,1.19-2.19,1.81l-.56.48c-.45.39-.89.79-1.32,1.19h0c-.92.85-1.81,1.73-2.68,2.63l-.34.37q-2,2.07-3.73,4.3a2.11,2.11,0,0,0-.19.23C247.16,26.77,246,28.35,245,30h0l0,.06h0l-.41.61c-.44.67-.86,1.35-1.28,2l-.28.47c-.43.73-.86,1.47-1.26,2.21h0l-.07.12L8.69,451.05c-.51.9-1,1.8-1.44,2.72h0c-.08.17-.18.35-.26.53-.36.73-.7,1.47-1,2.21l-.55,1.27,0,.11,0,.07h0c-.21.5-.41,1-.61,1.51h0c0,.1-.08.19-.11.28l-.12.29h0c0,.1-.08.2-.11.3h0a.14.14,0,0,1,0,.06l0,.08h0c-.29.78-.57,1.57-.84,2.36h0l-.18.54h0c-.24.74-.47,1.49-.69,2.24l-.21.76h0c-.2.7-.38,1.4-.55,2.11-.08.33-.15.66-.23,1h0c-.14.65-.28,1.31-.41,2h0c-.08.41-.15.83-.22,1.24H1c-.1.6-.21,1.19-.29,1.79h0c-.08.51-.14,1-.2,1.55h0c-.06.52-.13,1-.18,1.56s-.11,1.33-.15,2c0,.4-.07.8-.09,1.2C0,481.86,0,482.94,0,484H0a66.38,66.38,0,0,0,66.37,66.38c.8,0,1.58,0,2.37-.06H309.81c.78,0,1.57.06,2.36.06A66.37,66.37,0,0,0,378.54,484h0a66.36,66.36,0,0,0-65.14-66.35v0H180.13l77.45-138.17,42.57-76L475.4,516.2a66.58,66.58,0,0,0,90.68,25.53c.89-.5,1.76-1,2.62-1.56l.68-.42c.75-.48,1.49-1,2.22-1.48l.32-.22c.81-.57,1.6-1.16,2.39-1.76l.59-.47c.65-.51,1.28-1,1.91-1.57l.44-.37c.73-.64,1.45-1.29,2.15-2,.17-.15.33-.32.49-.48C580.47,530.89,581,530.33,581.58,529.75Z"/><path class="cls-3" d="M969.14,379.66a9.78,9.78,0,0,1-.65,3.53,8.54,8.54,0,0,1-5,4.19,14.47,14.47,0,0,1-2.83.32H939.24a9.56,9.56,0,0,1-3.69-.59,5.65,5.65,0,0,1-2.29-1.69,9.74,9.74,0,0,1-1.47-2.66c-.39-1.05-.81-2.19-1.25-3.43l-1.41-4.89a62.93,62.93,0,0,1-6.69,5.76,51.53,51.53,0,0,1-17.94,8.65,42.14,42.14,0,0,1-10.71,1.35,71,71,0,0,1-19-2.5,70.13,70.13,0,0,1-17-7.12,69.37,69.37,0,0,1-14.3-11.09,71.48,71.48,0,0,1-11-14.4A70.52,70.52,0,0,1,825.41,338a72.59,72.59,0,0,1-2.5-19.19,70.77,70.77,0,0,1,5.54-28.1,71.67,71.67,0,0,1,15.11-22.62,70.43,70.43,0,0,1,50.23-20.6A49.69,49.69,0,0,1,906.35,249,48.22,48.22,0,0,1,917,253.1a42.62,42.62,0,0,1,8.75,6.25,48.46,48.46,0,0,1,6.85,7.89l3.15-9.9c.73-1.81,1.32-3.28,1.8-4.4a7.86,7.86,0,0,1,1.52-2.5,4,4,0,0,1,2-1.09,16.19,16.19,0,0,1,3.37-.27h16.2a14.57,14.57,0,0,1,2.83.33,5.29,5.29,0,0,1,2.82,1.52,7,7,0,0,1,2.18,2.72,8.8,8.8,0,0,1,.65,3.47ZM862.05,318.77a39.59,39.59,0,0,0,2.23,13.43A31.72,31.72,0,0,0,870.64,343a30.15,30.15,0,0,0,22.83,9.89A34.14,34.14,0,0,0,907,350.25,34.79,34.79,0,0,0,917.88,343a32.83,32.83,0,0,0,7.23-10.82,35.42,35.42,0,0,0,0-26.69,35.21,35.21,0,0,0-7.23-11.09A34.36,34.36,0,0,0,907,286.86a33,33,0,0,0-13.54-2.77,29.57,29.57,0,0,0-12.89,2.77,30.12,30.12,0,0,0-9.94,7.56,34.07,34.07,0,0,0-6.36,11.09A39.36,39.36,0,0,0,862.05,318.77Z"/><path class="cls-3" d="M998.06,250.93a6.6,6.6,0,0,1,2.94-1.52,13.78,13.78,0,0,1,2.93-.33h16.42a8,8,0,0,1,3.43.65,6,6,0,0,1,2.22,1.8,11.48,11.48,0,0,1,1.47,2.6q.6,1.47,1.14,3.21l4.57,13.16q3-3.92,6.14-8a41.1,41.1,0,0,1,7.34-7.4,37.45,37.45,0,0,1,10.11-5.49,41.58,41.58,0,0,1,14.36-2.17,67.77,67.77,0,0,1,27.45,5.49,65.58,65.58,0,0,1,21.64,15.11,69.79,69.79,0,0,1,14.18,22.62,79.68,79.68,0,0,1,0,56.15,69.49,69.49,0,0,1-14.18,22.67,66.18,66.18,0,0,1-21.64,15.17,67.13,67.13,0,0,1-27.45,5.54,39.12,39.12,0,0,1-12.18-1.68,35.78,35.78,0,0,1-9.08-4.4,42,42,0,0,1-7-6q-3-3.27-6-6.53v50.67a8.25,8.25,0,0,1-2,5.54q-2,2.3-6.09,2.29h-24.9a8.22,8.22,0,0,1-2.82-.55,10.6,10.6,0,0,1-2.83-1.52,8.14,8.14,0,0,1-2.17-2.45,6.25,6.25,0,0,1-.87-3.31V257.12a7.13,7.13,0,0,1,.81-3.58A12.47,12.47,0,0,1,998.06,250.93Zm101.55,67.84a38.26,38.26,0,0,0-2.28-13.21,33.75,33.75,0,0,0-6.42-10.93,30.31,30.31,0,0,0-9.89-7.39,29.46,29.46,0,0,0-12.72-2.72,33.51,33.51,0,0,0-13,2.56,34.66,34.66,0,0,0-10.77,7,35.44,35.44,0,0,0-7.5,10.38,32.73,32.73,0,0,0-3.21,12.72v1.63a33.69,33.69,0,0,0,2.72,13.48,34.25,34.25,0,0,0,7.39,10.93,35.35,35.35,0,0,0,11,7.34,33.44,33.44,0,0,0,13.37,2.72,29.46,29.46,0,0,0,12.72-2.72,30.6,30.6,0,0,0,9.89-7.34,32.92,32.92,0,0,0,6.42-10.93A39.3,39.3,0,0,0,1099.61,318.77Z"/><path class="cls-3" d="M1164.08,250.93a6.65,6.65,0,0,1,2.94-1.52,13.8,13.8,0,0,1,2.94-.33h16.41a8,8,0,0,1,3.43.65,6.07,6.07,0,0,1,2.23,1.8,11.08,11.08,0,0,1,1.46,2.6c.4,1,.78,2.05,1.15,3.21l4.56,13.16q3-3.92,6.15-8a40.71,40.71,0,0,1,7.33-7.4,37.37,37.37,0,0,1,10.12-5.49,41.48,41.48,0,0,1,14.35-2.17,67.77,67.77,0,0,1,27.45,5.49,65.58,65.58,0,0,1,21.64,15.11,70,70,0,0,1,14.19,22.62,79.68,79.68,0,0,1,0,56.15,69.69,69.69,0,0,1-14.19,22.67,66.18,66.18,0,0,1-21.64,15.17,67.13,67.13,0,0,1-27.45,5.54,39.21,39.21,0,0,1-12.18-1.68,35.78,35.78,0,0,1-9.08-4.4,42.36,42.36,0,0,1-7-6q-3-3.27-6-6.53v50.67a8.2,8.2,0,0,1-2,5.54q-1.95,2.3-6.09,2.29H1170a8.27,8.27,0,0,1-2.83-.55,10.6,10.6,0,0,1-2.83-1.52,8.27,8.27,0,0,1-2.17-2.45,6.34,6.34,0,0,1-.87-3.31V257.12a7.13,7.13,0,0,1,.81-3.58A13.18,13.18,0,0,1,1164.08,250.93Zm101.55,67.84a38.26,38.26,0,0,0-2.28-13.21,33.9,33.9,0,0,0-6.41-10.93,30.46,30.46,0,0,0-9.9-7.39,29.46,29.46,0,0,0-12.72-2.72,33.51,33.51,0,0,0-13,2.56,34.66,34.66,0,0,0-10.77,7,35.44,35.44,0,0,0-7.5,10.38,32.54,32.54,0,0,0-3.2,12.72v1.63a33.68,33.68,0,0,0,2.71,13.48,34.12,34.12,0,0,0,7.4,10.93,35.19,35.19,0,0,0,11,7.34,33.44,33.44,0,0,0,13.37,2.72,29.46,29.46,0,0,0,12.72-2.72,30.75,30.75,0,0,0,9.9-7.34,33.07,33.07,0,0,0,6.41-10.93A39.3,39.3,0,0,0,1265.63,318.77Z"/><path class="cls-3" d="M1396.2,264.14a28.81,28.81,0,0,1,5.71-6,43.25,43.25,0,0,1,8.37-5.32,53.91,53.91,0,0,1,10.49-3.79,49.57,49.57,0,0,1,12.18-1.46q12.39,0,21.47,4.77a42.59,42.59,0,0,1,15,13,57.52,57.52,0,0,1,8.81,19.26,92.65,92.65,0,0,1,2.88,23.52v71.21q0,4.14-1.79,6.25c-1.2,1.42-3.1,2.12-5.71,2.12h-25.12q-4.66,0-6.41-1.57t-1.74-6.15V308.12a21.2,21.2,0,0,0-1.79-8.7,22.7,22.7,0,0,0-4.84-7,22.19,22.19,0,0,0-7.12-4.68,22.48,22.48,0,0,0-8.65-1.68,19.59,19.59,0,0,0-7.66,1.57,21.81,21.81,0,0,0-6.74,4.46,24.89,24.89,0,0,0-5,6.9,23.12,23.12,0,0,0-2.33,8.92v71.76a10.37,10.37,0,0,1-.71,3.7,5.86,5.86,0,0,1-2.12,2.82,10,10,0,0,1-2.66,1.2,11.43,11.43,0,0,1-2.88.32h-24.58q-4.66,0-6.74-2.28a8.71,8.71,0,0,1-2.06-6.09V216.85a8.56,8.56,0,0,1,2.06-6q2.07-2.28,6.74-2.28h24.58a11.38,11.38,0,0,1,5.54,1.74,5.86,5.86,0,0,1,2.12,2.82,9.82,9.82,0,0,1,.71,3.48Z"/><path class="cls-3" d="M1635.39,385.87a6.71,6.71,0,0,1-3,1.52,14.62,14.62,0,0,1-3,.33H1613a7.45,7.45,0,0,1-3.37-.71,7.2,7.2,0,0,1-2.4-1.9,11.62,11.62,0,0,1-1.63-2.71,22.05,22.05,0,0,1-1.08-3.15l-2.29-10.62a26.82,26.82,0,0,1-5.43,7.1,44.28,44.28,0,0,1-9.41,6.88,58.72,58.72,0,0,1-28.76,7.27,48.47,48.47,0,0,1-22-4.79,47.46,47.46,0,0,1-16.15-13,57.62,57.62,0,0,1-9.94-19.3,80.07,80.07,0,0,1-3.37-23.54V258c0-2.75.59-4.83,1.79-6.25s3.1-2.12,5.71-2.12h25.11q4.68,0,6.42,1.58t1.74,6.15v70.86a22.42,22.42,0,0,0,1.79,8.87,25,25,0,0,0,4.84,7.4,22.49,22.49,0,0,0,7.12,5.06,20.75,20.75,0,0,0,8.65,1.85,30.71,30.71,0,0,0,8.48-1.31,27.8,27.8,0,0,0,8.48-4.08,23.17,23.17,0,0,0,6.52-7.13,19.94,19.94,0,0,0,2.61-10.45V257.68a10.08,10.08,0,0,1,.71-3.7,5.78,5.78,0,0,1,2.12-2.83A10,10,0,0,1,1602,250a11.29,11.29,0,0,1,2.88-.33h24.57q4.68,0,6.74,2.29a8.7,8.7,0,0,1,2.07,6.08V379.67a8,8,0,0,1-.92,3.8,6.85,6.85,0,0,1-2.56,2.72Z"/><path class="cls-3" d="M1702.91,379.33c-.65,1.38-1.2,2.59-1.63,3.64a10.93,10.93,0,0,1-1.47,2.61,5.27,5.27,0,0,1-2,1.58,8.1,8.1,0,0,1-3.26.54H1673q-8.7,0-8.7-8.37V216.9a7.88,7.88,0,0,1,.71-3.37,8.39,8.39,0,0,1,1.85-2.61,8.2,8.2,0,0,1,2.61-1.69,7.55,7.55,0,0,1,2.88-.6H1697a8.79,8.79,0,0,1,6.52,2.4,8,8,0,0,1,2.39,5.87v45.23a55.84,55.84,0,0,1,6.53-6,39,39,0,0,1,7.55-4.62,43.13,43.13,0,0,1,9-3,50,50,0,0,1,10.88-1.09,66.75,66.75,0,0,1,27.23,5.49,64.57,64.57,0,0,1,21.42,15.11,70.11,70.11,0,0,1,14,22.62,80.57,80.57,0,0,1,0,56.15,69.81,69.81,0,0,1-14,22.67,65.16,65.16,0,0,1-21.42,15.17,66.12,66.12,0,0,1-27.23,5.54,39.26,39.26,0,0,1-10.6-1.41,49.91,49.91,0,0,1-9.52-3.7,53.33,53.33,0,0,1-8.21-5.16,66.84,66.84,0,0,1-6.68-5.82Zm65.56-60.56a39.36,39.36,0,0,0-2.23-13.26,34.07,34.07,0,0,0-6.36-11.09,30.24,30.24,0,0,0-9.89-7.56,29.45,29.45,0,0,0-12.94-2.77,32.75,32.75,0,0,0-13.43,2.77,33.7,33.7,0,0,0-10.82,7.56,36.65,36.65,0,0,0-7.23,11.09,33.8,33.8,0,0,0-2.66,13.26v1.52a34.49,34.49,0,0,0,10.44,23.22,33.43,33.43,0,0,0,10.65,6.9,34,34,0,0,0,13,2.5,29.94,29.94,0,0,0,22.83-9.89,31.72,31.72,0,0,0,6.36-10.82A39.59,39.59,0,0,0,1768.47,318.77Z"/><path class="cls-3" d="M850.64,95.08a4.39,4.39,0,0,1,1.64-3.72A19.05,19.05,0,0,1,857,89l18.16-6.32a4.18,4.18,0,0,1,.76-.08h.68c2,0,3.3.58,4,1.72a8.93,8.93,0,0,1,1,4.52l-.08,22h11a5.79,5.79,0,0,1,4.16,1.52,6,6,0,0,1,1.6,4.56v15.44q0,3.36-1.6,4.92a5.69,5.69,0,0,1-4.16,1.56h-11l.08,67.52a5.8,5.8,0,0,1-1.76,4.6,7.1,7.1,0,0,1-4.88,1.56H856.8q-6.15,0-6.16-6.16l-.08-67.52h-8.23q-6.17,0-6.16-6.48V116.92q0-6.08,6.16-6.08h8.23Z"/><path class="cls-3" d="M943.92,121.61a21.2,21.2,0,0,1,4.2-4.43,31.79,31.79,0,0,1,6.16-3.91,39.59,39.59,0,0,1,7.72-2.79,36.12,36.12,0,0,1,9-1.08,33.55,33.55,0,0,1,15.8,3.51,31.38,31.38,0,0,1,11,9.58,42.6,42.6,0,0,1,6.48,14.16A68.41,68.41,0,0,1,1006.4,154v52.4a7,7,0,0,1-1.32,4.6,5.21,5.21,0,0,1-4.2,1.56H982.4c-2.3,0-3.87-.39-4.72-1.16s-1.28-2.28-1.28-4.52V154a15.53,15.53,0,0,0-1.32-6.4,16.81,16.81,0,0,0-3.56-5.16,16.52,16.52,0,0,0-11.6-4.68,14.49,14.49,0,0,0-5.64,1.16,16,16,0,0,0-5,3.28,18.21,18.21,0,0,0-3.68,5.08,17,17,0,0,0-1.72,6.56v52.8a7.54,7.54,0,0,1-.52,2.72,4.39,4.39,0,0,1-1.56,2.08,7.54,7.54,0,0,1-2,.88,8.42,8.42,0,0,1-2.12.24H919.68c-2.29,0-3.95-.56-5-1.68a6.43,6.43,0,0,1-1.52-4.48V86.81a6.33,6.33,0,0,1,1.52-4.4c1-1.12,2.67-1.68,5-1.68h18.08A8.39,8.39,0,0,1,941.84,82a4.34,4.34,0,0,1,1.56,2.08,7.13,7.13,0,0,1,.52,2.56Z"/><path class="cls-3" d="M1110.71,200.36a53.28,53.28,0,0,1-15.84,10.12,48.42,48.42,0,0,1-18.64,3.64A54.41,54.41,0,0,1,1038.39,199a53.28,53.28,0,0,1-11.68-16.68,50.44,50.44,0,0,1-4.31-20.88,54.23,54.23,0,0,1,6.59-26,52.76,52.76,0,0,1,7.68-10.6,49.28,49.28,0,0,1,10.12-8.28,50.17,50.17,0,0,1,12.16-5.36,49.08,49.08,0,0,1,13.84-1.92,47.33,47.33,0,0,1,12.88,1.76,50.48,50.48,0,0,1,11.72,5,51.95,51.95,0,0,1,17.88,17.48,47.14,47.14,0,0,1,5.08,11.36,43.33,43.33,0,0,1,1.8,12.44q0,4.16-.12,6.8a7.66,7.66,0,0,1-1.24,4.2,6,6,0,0,1-3.72,2.16,36.39,36.39,0,0,1-7.64.6h-57.6a20.06,20.06,0,0,0,3.24,8.56,20.48,20.48,0,0,0,5.64,5.48,22.69,22.69,0,0,0,6.8,2.92,28.53,28.53,0,0,0,6.8.88,30.49,30.49,0,0,0,5.92-.6,41.69,41.69,0,0,0,5.88-1.6,33.58,33.58,0,0,0,5.2-2.32,17.37,17.37,0,0,0,3.8-2.76,17.32,17.32,0,0,1,2.2-1.56,3.89,3.89,0,0,1,2-.52,3.83,3.83,0,0,1,2.12.72,16.67,16.67,0,0,1,2.44,2.08l8.48,9.6a5.26,5.26,0,0,1,1.12,1.88,6.21,6.21,0,0,1,.24,1.72,4.4,4.4,0,0,1-.88,2.76A10.32,10.32,0,0,1,1110.71,200.36Zm-38.48-66.64a15.26,15.26,0,0,0-6,1.24,23,23,0,0,0-5.48,3.32,29,29,0,0,0-4.6,4.72,29.42,29.42,0,0,0-3.32,5.36h40.88a46.72,46.72,0,0,0-3.64-5.76,24.65,24.65,0,0,0-4.48-4.64,19.5,19.5,0,0,0-5.76-3.12A23.05,23.05,0,0,0,1072.23,133.72Z"/><path class="cls-3" d="M824.74,504.08a2.44,2.44,0,0,1,1-.51,5.1,5.1,0,0,1,1-.11h5.49a2.44,2.44,0,0,1,1.12.24,2.39,2.39,0,0,1,.8.64,3.1,3.1,0,0,1,.53.9c.13.34.26.69.38,1.05l.76,3.19a11.44,11.44,0,0,1,1.57-2.32A10.82,10.82,0,0,1,840,505a14.84,14.84,0,0,1,3.72-1.61,17.81,17.81,0,0,1,5.07-.64,17.26,17.26,0,0,1,4.16.46,12.57,12.57,0,0,1,3.42,1.34,13,13,0,0,1,2.81,2.17,20.51,20.51,0,0,1,2.4,3,11,11,0,0,1,2.05-2.35,16.39,16.39,0,0,1,3.26-2.25,20.53,20.53,0,0,1,4.21-1.67,18.42,18.42,0,0,1,4.94-.65,15.48,15.48,0,0,1,7.23,1.6,14.7,14.7,0,0,1,5.14,4.34,19.12,19.12,0,0,1,3.07,6.44,29.39,29.39,0,0,1,1,7.86v23.8a3.16,3.16,0,0,1-.6,2.09,2.37,2.37,0,0,1-1.91.71h-8.39a3.23,3.23,0,0,1-2.14-.53,2.73,2.73,0,0,1-.58-2V523a8.63,8.63,0,0,0-.49-2.91,7.56,7.56,0,0,0-1.37-2.34,6,6,0,0,0-2.12-1.56,6.68,6.68,0,0,0-2.78-.57,6.48,6.48,0,0,0-2.62.55,7,7,0,0,0-2.18,1.51,7.33,7.33,0,0,0-1.51,2.32,7.89,7.89,0,0,0-.56,3v23.8a3.16,3.16,0,0,1-.6,2.09,2.38,2.38,0,0,1-1.91.71h-8.39a3.29,3.29,0,0,1-2.15-.53,2.77,2.77,0,0,1-.58-2V523a9.15,9.15,0,0,0-.45-2.91,7.05,7.05,0,0,0-1.31-2.34,5.9,5.9,0,0,0-2.07-1.56,6.4,6.4,0,0,0-2.74-.57,6.56,6.56,0,0,0-2.56.53,7.34,7.34,0,0,0-2.26,1.49,8.45,8.45,0,0,0-1.67,2.31,7.68,7.68,0,0,0-.78,3v24a3.45,3.45,0,0,1-.24,1.24,1.89,1.89,0,0,1-.71.94,3.36,3.36,0,0,1-.88.4,4,4,0,0,1-1,.11h-8.21a2.9,2.9,0,0,1-2.25-.76,2.93,2.93,0,0,1-.69-2V506.15a2.62,2.62,0,0,1,.31-1.27A2.26,2.26,0,0,1,825,504Z"/><path class="cls-3" d="M898.36,526.54a24,24,0,0,1,.85-6.43,23.67,23.67,0,0,1,2.4-5.72,23.33,23.33,0,0,1,3.71-4.8,23,23,0,0,1,4.81-3.69,24.69,24.69,0,0,1,5.72-2.36,24.25,24.25,0,0,1,6.42-.83,23.68,23.68,0,0,1,16.84,6.88,24.26,24.26,0,0,1,5.09,7.56,23.6,23.6,0,0,1,1.87,9.39,23.86,23.86,0,0,1-.86,6.42,24.36,24.36,0,0,1-2.4,5.72,23.51,23.51,0,0,1-8.52,8.52,23.75,23.75,0,0,1-12,3.22,24.26,24.26,0,0,1-6.42-.84,23.9,23.9,0,0,1-5.72-2.38,23.47,23.47,0,0,1-4.81-3.71,23.13,23.13,0,0,1-3.71-4.81,24.36,24.36,0,0,1-2.4-5.72A23.85,23.85,0,0,1,898.36,526.54Zm13.26,0a13.18,13.18,0,0,0,.75,4.49,10.59,10.59,0,0,0,2.1,3.61,9.81,9.81,0,0,0,3.31,2.42,10.27,10.27,0,0,0,4.38.89,9.89,9.89,0,0,0,4.27-.89,9.5,9.5,0,0,0,3.23-2.42,10.8,10.8,0,0,0,2-3.61,14.56,14.56,0,0,0,0-8.92,11.71,11.71,0,0,0-2-3.71,9.53,9.53,0,0,0-7.5-3.45,9.86,9.86,0,0,0-7.69,3.45,11.46,11.46,0,0,0-2.1,3.71A13.09,13.09,0,0,0,911.62,526.54Z"/><path class="cls-3" d="M964.74,546.78c-.21.46-.4.87-.54,1.22a3.91,3.91,0,0,1-.49.87,1.82,1.82,0,0,1-.67.53,2.72,2.72,0,0,1-1.09.18h-7.2c-1.94,0-2.91-.93-2.91-2.8V492.5a2.6,2.6,0,0,1,.24-1.13,2.75,2.75,0,0,1,.62-.87,2.85,2.85,0,0,1,.87-.57,2.62,2.62,0,0,1,1-.2h8.25a3,3,0,0,1,2.18.8,2.7,2.7,0,0,1,.8,2v15.11a19.57,19.57,0,0,1,2.18-2,13.25,13.25,0,0,1,2.53-1.54,13.81,13.81,0,0,1,3-1,16.94,16.94,0,0,1,3.64-.36,22.35,22.35,0,0,1,9.1,1.83,21.63,21.63,0,0,1,7.16,5,23.37,23.37,0,0,1,4.68,7.56,26.9,26.9,0,0,1,0,18.77,23.21,23.21,0,0,1-4.68,7.57,21.68,21.68,0,0,1-7.16,5.07,22,22,0,0,1-9.1,1.86,13,13,0,0,1-3.55-.48,16.55,16.55,0,0,1-3.17-1.23,18.05,18.05,0,0,1-2.75-1.73A23.17,23.17,0,0,1,965.4,545Zm21.91-20.24a13.08,13.08,0,0,0-.74-4.43,11.53,11.53,0,0,0-2.13-3.71,10.22,10.22,0,0,0-3.3-2.52,9.86,9.86,0,0,0-4.33-.93,10.86,10.86,0,0,0-4.48.93,11.32,11.32,0,0,0-3.62,2.52,12.27,12.27,0,0,0-2.42,3.71,11.31,11.31,0,0,0-.89,4.43v.51A11.31,11.31,0,0,0,976.15,538a10,10,0,0,0,7.63-3.31,10.65,10.65,0,0,0,2.13-3.61A13.18,13.18,0,0,0,986.65,526.54Z"/><path class="cls-3" d="M1005.66,487.88a3,3,0,0,1,.65-2.16,2.85,2.85,0,0,1,2-.64h8.43a3.18,3.18,0,0,1,2.05.64,2.63,2.63,0,0,1,.78,2.16V495a2.65,2.65,0,0,1-.2.94,3.87,3.87,0,0,1-.56,1,3,3,0,0,1-.89.78,2.26,2.26,0,0,1-1.18.31h-8.43c-1.8,0-2.69-1-2.69-3Zm0,18.39a3.18,3.18,0,0,1,.65-2,2.42,2.42,0,0,1,2-.84h8.32a2.65,2.65,0,0,1,.94.2,3.47,3.47,0,0,1,.95.58,4,4,0,0,1,.74.89,2.18,2.18,0,0,1,.31,1.17v40.51a2.71,2.71,0,0,1-.76,2.09,3.11,3.11,0,0,1-2.18.71h-8.32c-1.8,0-2.69-.93-2.69-2.8Z"/><path class="cls-3" d="M1026.88,492.5a3.26,3.26,0,0,1,.58-2,2.32,2.32,0,0,1,2-.8h8.9a1.73,1.73,0,0,1,.76.2,2.87,2.87,0,0,1,.75.57,3.22,3.22,0,0,1,.58.87,2.6,2.6,0,0,1,.23,1.13v54.28a2.68,2.68,0,0,1-.78,2.09,2.89,2.89,0,0,1-2,.71h-8.43a2.46,2.46,0,0,1-2-.71,3.22,3.22,0,0,1-.58-2.09Z"/><path class="cls-3" d="M1086.69,544.06a24.25,24.25,0,0,1-7.2,4.59,21.78,21.78,0,0,1-8.46,1.66,24.72,24.72,0,0,1-17.19-6.85,24.22,24.22,0,0,1-5.31-7.58,22.82,22.82,0,0,1-2-9.48,24.56,24.56,0,0,1,.78-6.2,24.13,24.13,0,0,1,2.22-5.61,23.88,23.88,0,0,1,3.49-4.82,22.08,22.08,0,0,1,4.59-3.76,22.71,22.71,0,0,1,5.53-2.43,22.26,22.26,0,0,1,6.28-.87,21.18,21.18,0,0,1,5.85.8,22.64,22.64,0,0,1,5.33,2.25,23.29,23.29,0,0,1,4.56,3.49,23.66,23.66,0,0,1,3.56,4.45,21.35,21.35,0,0,1,2.3,5.16,19.5,19.5,0,0,1,.82,5.65c0,1.26,0,2.29-.05,3.09a3.48,3.48,0,0,1-.57,1.9,2.69,2.69,0,0,1-1.69,1,15.82,15.82,0,0,1-3.47.28h-26.16a9,9,0,0,0,1.47,3.88,9,9,0,0,0,2.57,2.49,10.13,10.13,0,0,0,3.08,1.33,12.85,12.85,0,0,0,3.09.4,13.94,13.94,0,0,0,2.69-.27,19.43,19.43,0,0,0,2.67-.73,14.62,14.62,0,0,0,2.36-1.05,7.74,7.74,0,0,0,1.73-1.26,8.46,8.46,0,0,1,1-.71,1.84,1.84,0,0,1,.89-.23,1.71,1.71,0,0,1,1,.33,6.94,6.94,0,0,1,1.11.94l3.85,4.36a2.41,2.41,0,0,1,.51.85,3,3,0,0,1,.11.79,2,2,0,0,1-.4,1.25A4.87,4.87,0,0,1,1086.69,544.06Zm-17.48-30.27a7.08,7.08,0,0,0-2.75.56,10.43,10.43,0,0,0-2.48,1.51,12.45,12.45,0,0,0-2.09,2.14,13,13,0,0,0-1.51,2.44H1079a20.54,20.54,0,0,0-1.66-2.62,11.29,11.29,0,0,0-2-2.11,8.92,8.92,0,0,0-2.62-1.41A10.45,10.45,0,0,0,1069.21,513.79Z"/><path class="cls-3" d="M1159.1,507a3,3,0,0,1-.27-2.54c.3-.71,1-1.06,2.16-1.06h9.3a2.79,2.79,0,0,1,1.66.51,2.74,2.74,0,0,1,1,1.45l1.36,4.31c.49,1.59,1,3.2,1.56,4.85s1.08,3.28,1.62,4.91,1,3.12,1.47,4.48.85,2.57,1.2,3.58.61,1.75.78,2.18l7.7-24.31a3.42,3.42,0,0,1,1.07-1.56,3.1,3.1,0,0,1,1.69-.4H1200a3.85,3.85,0,0,1,1.59.26,1.34,1.34,0,0,1,.73.69,1.66,1.66,0,0,1,.07,1,6,6,0,0,1-.36,1.18l-4,9.77c.17.41.5,1.11,1,2.09l1.66,3.34c.62,1.25,1.24,2.56,1.89,3.93s1.18,2.65,1.61,3.83l8.91-24.13a4,4,0,0,1,1-1.56,2.34,2.34,0,0,1,1.47-.4h8a3.38,3.38,0,0,1,2.4.66c.44.43.46,1.26.07,2.47L1209,548a3,3,0,0,1-1,1.11,3.5,3.5,0,0,1-1.94.45h-3.82a3.74,3.74,0,0,1-2.07-.45,3.35,3.35,0,0,1-1.05-1.19l-6.76-16.49L1185.7,548a4.65,4.65,0,0,1-1,1.11,2.5,2.5,0,0,1-1.63.45h-4.33a3.73,3.73,0,0,1-2-.42,2.54,2.54,0,0,1-.89-1.14Z"/><path class="cls-3" d="M1267.38,544.06a24.2,24.2,0,0,1-7.19,4.59,21.83,21.83,0,0,1-8.47,1.66,24.77,24.77,0,0,1-17.19-6.85,24.36,24.36,0,0,1-5.3-7.58,22.82,22.82,0,0,1-2-9.48,24.61,24.61,0,0,1,3-11.81,23.88,23.88,0,0,1,3.49-4.82,22.13,22.13,0,0,1,4.6-3.76,22.64,22.64,0,0,1,5.52-2.43,22.33,22.33,0,0,1,6.29-.87,21.18,21.18,0,0,1,5.85.8,22.57,22.57,0,0,1,5.32,2.25,23,23,0,0,1,4.56,3.49,23.27,23.27,0,0,1,3.56,4.45,21,21,0,0,1,2.31,5.16,19.5,19.5,0,0,1,.82,5.65q0,1.89-.06,3.09a3.4,3.4,0,0,1-.56,1.9,2.69,2.69,0,0,1-1.69,1,15.89,15.89,0,0,1-3.47.28h-26.16a8.9,8.9,0,0,0,4,6.37,10.29,10.29,0,0,0,3.09,1.33,12.85,12.85,0,0,0,3.09.4,14,14,0,0,0,2.69-.27,19.43,19.43,0,0,0,2.67-.73,14.62,14.62,0,0,0,2.36-1.05,7.74,7.74,0,0,0,1.73-1.26,7.71,7.71,0,0,1,1-.71,1.82,1.82,0,0,1,.89-.23,1.73,1.73,0,0,1,1,.33,7.41,7.41,0,0,1,1.11.94l3.85,4.36a2.57,2.57,0,0,1,.51.85,3,3,0,0,1,.11.79,2.05,2.05,0,0,1-.4,1.25A4.66,4.66,0,0,1,1267.38,544.06Zm-17.48-30.27a7,7,0,0,0-2.74.56,10.69,10.69,0,0,0-2.49,1.51,13.23,13.23,0,0,0-2.09,2.14,12.45,12.45,0,0,0-1.5,2.44h18.56a21.67,21.67,0,0,0-1.65-2.62,11,11,0,0,0-2-2.11,8.86,8.86,0,0,0-2.61-1.41A10.51,10.51,0,0,0,1249.9,513.79Z"/><path class="cls-3" d="M1291.69,546.78c-.22.46-.4.87-.54,1.22a3.56,3.56,0,0,1-.5.87,1.74,1.74,0,0,1-.67.53,2.68,2.68,0,0,1-1.09.18h-7.19c-1.94,0-2.91-.93-2.91-2.8V492.5a2.6,2.6,0,0,1,.24-1.13,2.73,2.73,0,0,1,.61-.87,3,3,0,0,1,.88-.57,2.58,2.58,0,0,1,1-.2h8.25a3,3,0,0,1,2.18.8,2.7,2.7,0,0,1,.8,2v15.11a18.73,18.73,0,0,1,2.18-2,12.87,12.87,0,0,1,2.52-1.54,14.09,14.09,0,0,1,3-1,16.91,16.91,0,0,1,3.63-.36,22.4,22.4,0,0,1,9.11,1.83,21.48,21.48,0,0,1,7.15,5,23.39,23.39,0,0,1,4.69,7.56,26.9,26.9,0,0,1,0,18.77,23.23,23.23,0,0,1-4.69,7.57,21.54,21.54,0,0,1-7.15,5.07,22.09,22.09,0,0,1-9.11,1.86,12.93,12.93,0,0,1-3.54-.48,16.9,16.9,0,0,1-3.18-1.23,18.45,18.45,0,0,1-2.74-1.73,23.34,23.34,0,0,1-2.24-1.94Zm21.91-20.24a13.33,13.33,0,0,0-.74-4.43,11.53,11.53,0,0,0-2.13-3.71,10.15,10.15,0,0,0-3.31-2.52,9.78,9.78,0,0,0-4.32-.93,10.91,10.91,0,0,0-4.49.93,11.28,11.28,0,0,0-3.61,2.52,12.08,12.08,0,0,0-2.42,3.71,11.31,11.31,0,0,0-.89,4.43v.51a11.34,11.34,0,0,0,7,10.07,11.51,11.51,0,0,0,4.36.83,10,10,0,0,0,7.63-3.31,10.65,10.65,0,0,0,2.13-3.61A13.43,13.43,0,0,0,1313.6,526.54Z"/><path class="cls-3" d="M1426.1,535.37a2.51,2.51,0,0,1,1-.45,3.88,3.88,0,0,1,.71-.09,2.46,2.46,0,0,1,1.12.25,3.06,3.06,0,0,1,1.06,1.09l4.07,6.14a5.78,5.78,0,0,1,.34.66,1.5,1.5,0,0,1,.17.58,1.85,1.85,0,0,1-.53,1.36,6.88,6.88,0,0,1-1.15.93,27.05,27.05,0,0,1-6.52,3.32,22.2,22.2,0,0,1-7.5,1.26,23.53,23.53,0,0,1-12-3.22,24.48,24.48,0,0,1-4.79-3.71,22.47,22.47,0,0,1-3.71-4.81A24.74,24.74,0,0,1,1396,533a24.37,24.37,0,0,1,2.38-18.57,22.66,22.66,0,0,1,3.71-4.8,23.4,23.4,0,0,1,10.44-6,23.6,23.6,0,0,1,6.31-.83,24.43,24.43,0,0,1,7.32,1.05,22.79,22.79,0,0,1,6.31,3.12l-.11-.1a4.3,4.3,0,0,1,1.27,1.1,2.64,2.64,0,0,1,.47,1.58,2.54,2.54,0,0,1-.44,1.35l-3.23,5.49a2.92,2.92,0,0,1-2.47,1.78,2.5,2.5,0,0,1-.8-.17,4.17,4.17,0,0,1-1.05-.56,17.05,17.05,0,0,0-3.44-1.73,11.18,11.18,0,0,0-3.9-.67,9.56,9.56,0,0,0-4.22.93,10.08,10.08,0,0,0-3.29,2.52,11.89,11.89,0,0,0-2.12,3.71,13.3,13.3,0,0,0,0,8.92,11,11,0,0,0,2.12,3.61,9.94,9.94,0,0,0,3.29,2.42,9.82,9.82,0,0,0,4.22.89,10.22,10.22,0,0,0,3.88-.73A17.47,17.47,0,0,0,1426.1,535.37Z"/><path class="cls-3" d="M1440,492.5a3.26,3.26,0,0,1,.58-2,2.3,2.3,0,0,1,2-.8h8.9a1.76,1.76,0,0,1,.76.2,2.87,2.87,0,0,1,.75.57,3.22,3.22,0,0,1,.58.87,2.75,2.75,0,0,1,.23,1.13v54.28a2.68,2.68,0,0,1-.78,2.09,2.89,2.89,0,0,1-2,.71h-8.43a2.45,2.45,0,0,1-2-.71,3.22,3.22,0,0,1-.58-2.09Z"/><path class="cls-3" d="M1459.63,526.54a24,24,0,0,1,.86-6.43,23.46,23.46,0,0,1,6.1-10.52,23.1,23.1,0,0,1,4.82-3.69,24.16,24.16,0,0,1,12.13-3.19,23.63,23.63,0,0,1,16.84,6.88,24.09,24.09,0,0,1,5.09,7.56,23.43,23.43,0,0,1,1.87,9.39,23.85,23.85,0,0,1-.85,6.42,24.36,24.36,0,0,1-2.4,5.72,23.72,23.72,0,0,1-8.52,8.52,24,24,0,0,1-5.69,2.38,23.61,23.61,0,0,1-6.34.84,24.13,24.13,0,0,1-6.41-.84,23.6,23.6,0,0,1-14.25-10.9,24.33,24.33,0,0,1-2.39-5.72A23.86,23.86,0,0,1,1459.63,526.54Zm13.27,0a13.18,13.18,0,0,0,.74,4.49,10.78,10.78,0,0,0,2.11,3.61,9.87,9.87,0,0,0,3.3,2.42,10.33,10.33,0,0,0,4.38.89,9.86,9.86,0,0,0,4.27-.89,9.64,9.64,0,0,0,3.24-2.42,10.61,10.61,0,0,0,2-3.61,14.36,14.36,0,0,0,0-8.92,11.5,11.5,0,0,0-2-3.71,9.78,9.78,0,0,0-3.24-2.52,9.59,9.59,0,0,0-4.27-.93,9.82,9.82,0,0,0-7.68,3.45,11.67,11.67,0,0,0-2.11,3.71A13.08,13.08,0,0,0,1472.9,526.54Z"/><path class="cls-3" d="M1556,549a2.3,2.3,0,0,1-1,.5,4.44,4.44,0,0,1-1,.11h-5.49a2.44,2.44,0,0,1-1.12-.23,2.39,2.39,0,0,1-.8-.64,3.87,3.87,0,0,1-.55-.9,9.27,9.27,0,0,1-.36-1l-.76-3.56a9.15,9.15,0,0,1-1.82,2.38,15.09,15.09,0,0,1-3.14,2.3,20,20,0,0,1-4.31,1.74,19.36,19.36,0,0,1-5.3.69,16.25,16.25,0,0,1-7.34-1.6,15.93,15.93,0,0,1-5.4-4.36,19.15,19.15,0,0,1-3.32-6.45,26.5,26.5,0,0,1-1.13-7.87v-23.8a3.16,3.16,0,0,1,.6-2.09,2.37,2.37,0,0,1,1.91-.71H1524a3.23,3.23,0,0,1,2.14.53,2.74,2.74,0,0,1,.59,2.05v23.68a7.6,7.6,0,0,0,.59,3,8.26,8.26,0,0,0,1.62,2.47,7.43,7.43,0,0,0,2.38,1.69,6.8,6.8,0,0,0,2.89.62,10.31,10.31,0,0,0,2.83-.43,9.21,9.21,0,0,0,2.84-1.37,7.79,7.79,0,0,0,2.18-2.38,6.67,6.67,0,0,0,.87-3.49V506.12a3.36,3.36,0,0,1,.24-1.23,1.88,1.88,0,0,1,.71-.95,3.27,3.27,0,0,1,.89-.4,3.9,3.9,0,0,1,1-.11H1554a2.56,2.56,0,0,1,2.94,2.8v40.66a2.66,2.66,0,0,1-.31,1.28,2.24,2.24,0,0,1-.85.9Z"/><path class="cls-3" d="M1597.05,545a22,22,0,0,1-2.23,1.94,18.35,18.35,0,0,1-2.73,1.73,16,16,0,0,1-3.16,1.23,13,13,0,0,1-3.58.48,22.07,22.07,0,0,1-9.1-1.86,21.68,21.68,0,0,1-7.16-5.07,23.38,23.38,0,0,1-4.68-7.57,26.9,26.9,0,0,1,0-18.77,23.54,23.54,0,0,1,4.68-7.56,21.63,21.63,0,0,1,7.16-5,22.38,22.38,0,0,1,9.1-1.83,18,18,0,0,1,3.66.34,13,13,0,0,1,3,1,13.57,13.57,0,0,1,2.51,1.56,20.31,20.31,0,0,1,2.16,2V492.46a2.85,2.85,0,0,1,.71-2,2.67,2.67,0,0,1,2.13-.8h8.17a2.66,2.66,0,0,1,1,.2,3.31,3.31,0,0,1,1,.56,2.86,2.86,0,0,1,.71.87,2.39,2.39,0,0,1,.27,1.13v54.32c0,1.87-1,2.8-2.94,2.8h-7.12a2.83,2.83,0,0,1-1.13-.18,1.82,1.82,0,0,1-.67-.53,3.91,3.91,0,0,1-.49-.87c-.14-.35-.33-.76-.54-1.22Zm-21.25-18.5a13.43,13.43,0,0,0,.74,4.49,10.65,10.65,0,0,0,2.13,3.61,10.06,10.06,0,0,0,7.63,3.31,11.65,11.65,0,0,0,4.38-.83,11.25,11.25,0,0,0,3.58-2.31,11.65,11.65,0,0,0,2.45-3.47,11.46,11.46,0,0,0,1-4.29v-.51a11.3,11.3,0,0,0-.88-4.43,11.7,11.7,0,0,0-2.41-3.71,11.52,11.52,0,0,0-3.64-2.52,11,11,0,0,0-4.52-.93,9.86,9.86,0,0,0-4.31.93,10.19,10.19,0,0,0-3.32,2.52,11.53,11.53,0,0,0-2.13,3.71A13.33,13.33,0,0,0,1575.8,526.54Z"/><path class="cls-3" d="M1120.28,530.25c0,1.12.54,1.67,1.61,1.67h9.62a1.52,1.52,0,0,0,1.25-.51,1.76,1.76,0,0,0,.42-1.16v-8.79a1.4,1.4,0,0,0-.53-1.16,1.71,1.71,0,0,0-1.14-.44h-9.62a1.5,1.5,0,0,0-1.2.44,1.63,1.63,0,0,0-.41,1.16Z"/><path class="cls-3" d="M1355.36,530.25c0,1.12.53,1.67,1.6,1.67h9.62a1.54,1.54,0,0,0,1.26-.51,1.76,1.76,0,0,0,.42-1.16v-8.79a1.43,1.43,0,0,0-.53-1.16,1.73,1.73,0,0,0-1.15-.44H1357a1.53,1.53,0,0,0-1.2.44,1.62,1.62,0,0,0-.4,1.16Z"/><path class="cls-4" d="M600.13,482.68a66.21,66.21,0,0,0-8.52-31.63L360.09,38A66.06,66.06,0,0,0,245,30l0,.06-.41.61c-.44.67-.86,1.35-1.28,2l-.28.47c-.44.73-.86,1.47-1.26,2.21l-.07.12L8.68,451.05c-.5.9-1,1.8-1.43,2.72-.09.17-.18.35-.26.53-.36.73-.7,1.47-1,2.21-.19.43-.38.85-.55,1.27a.54.54,0,0,0,0,.11l0,.07c-.21.5-.41,1-.61,1.51l-.12.28a2.49,2.49,0,0,1-.11.29l-.12.3a.14.14,0,0,1,0,.06l0,.08c-.29.78-.57,1.57-.84,2.36l-.18.54c-.24.74-.47,1.49-.69,2.24l-.21.76c-.2.7-.38,1.4-.55,2.11-.08.33-.15.66-.23,1-.14.65-.28,1.31-.41,2-.08.41-.15.83-.22,1.24-.11.6-.21,1.19-.29,1.79s-.14,1-.2,1.55-.13,1-.18,1.56-.11,1.33-.15,2c0,.4-.07.8-.09,1.2C0,481.86,0,482.94,0,484H0a66.38,66.38,0,0,0,66.37,66.38c.79,0,1.58,0,2.36-.06H309.81c.78,0,1.57.06,2.36.06A66.37,66.37,0,0,0,378.54,484h0a66.36,66.36,0,0,0-65.14-66.35v0H180.13l120-214.12L475.4,516.2a66.63,66.63,0,0,0,124.73-33.52Z"/><path class="cls-5" d="M591.61,451.05,358.69,35.49a66,66,0,0,0-15.14-18.76c-.15-.14-.31-.26-.47-.39-.66-.56-1.33-1.11-2-1.64s-1.13-.84-1.7-1.26c-.3-.22-.59-.45-.9-.67q-2.76-1.92-5.67-3.56l-.07,0-.8-.42c-.66-.36-1.32-.72-2-1.06s-1.23-.58-1.84-.86c-.34-.16-.68-.33-1-.48-.82-.37-1.65-.7-2.47-1l-.42-.17c-1-.37-1.93-.72-2.89-1l-.05,0A66.08,66.08,0,0,0,309,1.25l-.28,0C307.8,1.1,306.91,1,306,.92l-.69-.06c-.75-.06-1.5-.1-2.24-.13l-1.2,0c-.58,0-1.15,0-1.73,0s-1.15,0-1.73,0l-1.2,0c-.74,0-1.49.07-2.24.13l-.7.06c-.89.08-1.78.18-2.67.29l-.28,0a66.26,66.26,0,0,0-12.27,2.84l-.06,0c-1,.32-1.92.67-2.88,1l-.43.18c-.82.32-1.64.65-2.46,1l-1.06.5c-.6.28-1.21.55-1.8.85s-1.37.71-2.05,1.08l-.75.4-.07,0a65.72,65.72,0,0,0-5.67,3.57c-.27.18-.52.38-.78.57-.62.45-1.23.89-1.83,1.35s-1.29,1.05-1.93,1.58l-.55.45a66.31,66.31,0,0,0-15.13,18.76L8.68,451.05a67.23,67.23,0,0,0-3.32,6.84c-.26.61-.51,1.24-.76,1.86-.08.22-.17.43-.25.65a66.38,66.38,0,0,0,62,90c.79,0,1.58,0,2.36-.06H309.81c.78,0,1.57.06,2.36.06a66.37,66.37,0,0,0,1.23-132.72v0H180.13l120-214.13L475.4,516.19a66.61,66.61,0,1,0,116.21-65.14Z"/><path class="cls-6" d="M66.73,550.25a66.64,66.64,0,0,1-58-99.19L242.05,34.71A66.62,66.62,0,0,1,358.27,99.85L124.9,516.2A66.59,66.59,0,0,1,66.73,550.25Z"/><path class="cls-7" d="M533.57,550.25a66.59,66.59,0,0,1-58.17-34L242,99.85A66.62,66.62,0,0,1,358.25,34.71L591.61,451.06a66.63,66.63,0,0,1-58,99.19Z"/><path class="cls-7" d="M313.4,417.7v0H66.18a66.37,66.37,0,0,0,.19,132.74c.79,0,1.58,0,2.36-.06H309.81c.78,0,1.57.06,2.36.06A66.37,66.37,0,0,0,313.4,417.7Z"/><circle class="cls-7" cx="533.73" cy="484.07" r="66.06"/><circle class="cls-8" cx="66.84" cy="484.07" r="66.06"/><circle class="cls-8" cx="300.28" cy="66.06" r="66.06"/></g></g></svg>